<?xml version="1.0" standalone="no"?>
<!DOCTYPE svg PUBLIC "-//W3C//DTD SVG 1.1//EN" "http://www.w3.org/Graphics/SVG/1.1/DTD/svg11.dtd" >
<svg xmlns="http://www.w3.org/2000/svg" xmlns:xlink="http://www.w3.org/1999/xlink" version="1.1">
<metadata>
Created by FontForge 20161003 at Mon Mar 25 09:26:16 2019
 By www-data
(c)2009 Commercial Type.
</metadata>
<defs>
<font id="Giorgio" horiz-adv-x="366" >
  <font-face 
    font-family="Giorgio"
    font-weight="700"
    font-stretch="normal"
    units-per-em="1000"
    panose-1="2 11 8 3 3 2 2 4 2 4"
    ascent="910"
    descent="-90"
    x-height="567"
    cap-height="678"
    bbox="-160 -108 784 841"
    underline-thickness="50"
    underline-position="-200"
    unicode-range="U+0020-FB00"
  />
<missing-glyph horiz-adv-x="625" 
 />
    <glyph glyph-name="f_f" unicode="ff" horiz-adv-x="439" 
d="M14 483v84h40v17q0 49 25 71.5t81 22.5h63v-75h-36q-23 0 -23 -23v-13h91v17q0 49 25 71.5t81 22.5h64v-75h-37q-23 0 -23 -23v-13h60v-84h-60v-483h-110v483h-91v-483h-110v483h-40z" />
    <glyph glyph-name=".notdef" horiz-adv-x="625" 
 />
    <glyph glyph-name=".null" horiz-adv-x="0" 
 />
    <glyph glyph-name="nonmarkingreturn" horiz-adv-x="333" 
 />
    <glyph glyph-name="space" unicode=" " horiz-adv-x="90" 
 />
    <glyph glyph-name="exclam" unicode="!" horiz-adv-x="166" 
d="M29 0v100h109v-100h-109zM56 136l-32 542h118l-31 -542h-55z" />
    <glyph glyph-name="quotedbl" unicode="&#x22;" horiz-adv-x="260" 
d="M121 678l-18 -152h-66l-18 152h102zM241 678l-18 -152h-67l-17 152h102z" />
    <glyph glyph-name="numbersign" unicode="#" horiz-adv-x="348" 
d="M163 0l22 215h-50l-22 -215h-65l22 215h-54v92h64l10 93h-56v92h65l20 186h65l-20 -186h50l20 186h65l-20 -186h53v-92h-62l-10 -93h54v-92h-64l-22 -215h-65zM155 400l-10 -93h50l10 93h-50z" />
    <glyph glyph-name="dollar" unicode="$" 
d="M163 -50v43q-144 8 -144 153v91h102v-93q0 -53 42 -61v205l-48 48q-54 53 -74.5 88t-20.5 90v23q0 63 36.5 103.5t109.5 44.5v33h33v-33q140 -8 140 -153v-55h-100v59q0 49 -40 58v-183l55 -54q52 -53 72 -87t20 -86v-33q0 -70 -37.5 -112t-113.5 -46v-43h-32zM236 170
q0 45 -41 86v-173q41 7 41 61v26zM125 524q0 -38 41 -81v151q-41 -8 -41 -56v-14z" />
    <glyph glyph-name="percent" unicode="%" horiz-adv-x="533" 
d="M418 678h69l-372 -678h-69zM152 389q-63 0 -95 36.5t-32 97.5v29q0 61 32 97.5t95 36.5t95 -36.5t32 -97.5v-29q0 -61 -32 -97.5t-95 -36.5zM152 461q39 0 39 50v53q0 50 -39 50t-39 -50v-53q0 -50 39 -50zM381 -8q-63 0 -95 36.5t-32 97.5v29q0 61 32 97.5t95 36.5
t95 -36.5t32 -97.5v-29q0 -61 -32 -97.5t-95 -36.5zM381 64q39 0 39 50v53q0 50 -39 50t-39 -50v-53q0 -50 39 -50z" />
    <glyph glyph-name="ampersand" unicode="&#x26;" horiz-adv-x="389" 
d="M375 315h-27v-315h-82v74q-21 -82 -109 -82q-64 0 -100 41.5t-36 113.5v100q0 97 81 115q-71 23 -71 110v59q0 155 152 155q85 0 120 -39.5t35 -123.5v-47h-104v49q0 66 -47 66q-48 0 -48 -61v-73q0 -55 58 -55h178v-87zM186 87q55 0 55 66v162h-53q-29 0 -41 -13.5
t-12 -41.5v-112q0 -61 51 -61z" />
    <glyph glyph-name="quotesingle" unicode="'" horiz-adv-x="140" 
d="M121 678l-18 -152h-66l-18 152h102z" />
    <glyph glyph-name="parenleft" unicode="(" horiz-adv-x="235" 
d="M37 105v398q0 91 47.5 139.5t131.5 55.5v-73q-85 -10 -85 -121v-400q0 -111 85 -121v-73q-84 7 -131.5 55.5t-47.5 139.5z" />
    <glyph glyph-name="parenright" unicode=")" horiz-adv-x="235" 
d="M198 503v-398q0 -91 -47.5 -139.5t-131.5 -55.5v73q85 10 85 121v400q0 111 -85 121v73q84 -7 131.5 -55.5t47.5 -139.5z" />
    <glyph glyph-name="asterisk" unicode="*" horiz-adv-x="278" 
d="M169 447l-30 89l-30 -89l-70 51l73 56l-91 3l27 82l75 -54l-27 93h86l-27 -93l75 54l27 -82l-91 -3l73 -56z" />
    <glyph glyph-name="plus" unicode="+" horiz-adv-x="361" 
d="M22 292v88h112v121h94v-121h111v-88h-111v-121h-94v121h-112z" />
    <glyph glyph-name="comma" unicode="," horiz-adv-x="167" 
d="M142 109v-9l-58 -153h-64l14 162h108z" />
    <glyph glyph-name="hyphen" unicode="-" horiz-adv-x="196" 
d="M18 269v92h160v-92h-160z" />
    <glyph glyph-name="period" unicode="." horiz-adv-x="167" 
d="M29 0v109h109v-109h-109z" />
    <glyph glyph-name="slash" unicode="/" horiz-adv-x="246" 
d="M147 698h89l-145 -788h-89z" />
    <glyph glyph-name="zero" unicode="0" horiz-adv-x="387" 
d="M193 87q55 0 55 70v364q0 70 -55 70q-54 0 -54 -70v-364q0 -70 54 -70zM193 -8q-83 0 -125.5 50t-42.5 133v328q0 83 42.5 133t125.5 50q84 0 126.5 -50t42.5 -133v-328q0 -83 -42.5 -133t-126.5 -50z" />
    <glyph glyph-name="one" unicode="1" horiz-adv-x="256" 
d="M125 678h91v-678h-114v519h-1l-80 -83h-1v119z" />
    <glyph glyph-name="two" unicode="2" horiz-adv-x="347" 
d="M22 0v125q0 49 19 88t66 89l64 68q27 28 34.5 50.5t7.5 66.5v56q0 51 -41 51q-44 0 -44 -53v-85h-104v82q0 72 38.5 110t112.5 38q76 0 112.5 -35t36.5 -108v-66q0 -53 -14.5 -89t-57.5 -82l-73 -77q-18 -20 -26 -30t-15 -29.5t-7 -44.5v-32h187v-93h-296z" />
    <glyph glyph-name="three" unicode="3" horiz-adv-x="365" 
d="M185 686q151 0 151 -155v-59q0 -85 -78 -110q84 -19 84 -115v-100q0 -73 -40.5 -114t-124.5 -41q-157 0 -157 169v89h104v-97q0 -66 53 -66q51 0 51 61v112q0 55 -56 55h-48v87h43q28 0 44.5 14t16.5 41v73q0 61 -49 61t-49 -66v-69h-104v60q0 170 159 170z" />
    <glyph glyph-name="four" unicode="4" horiz-adv-x="386" 
d="M13 110v70l197 498h112v-479h46v-89h-46v-110h-108v110h-201zM215 478l-102 -279h103v279h-1z" />
    <glyph glyph-name="five" unicode="5" horiz-adv-x="370" 
d="M231 463q50 0 83 -37.5t33 -112.5v-166q0 -155 -162 -155q-157 0 -157 169v77h104v-85q0 -66 53 -66q48 0 48 61v164q0 61 -49 61q-50 0 -50 -62v-15h-104v382h300v-93h-196v-169h1q27 47 96 47z" />
    <glyph glyph-name="six" unicode="6" horiz-adv-x="382" 
d="M191 -8q-86 0 -126 48.5t-40 132.5v330q0 85 39.5 134t125.5 49q89 0 124 -44t35 -126v-36h-104v45q0 33 -12 49.5t-41 16.5q-54 0 -54 -70v-146h1q28 55 94 55q126 0 126 -167v-100q0 -171 -168 -171zM191 85q55 0 55 68v118q0 68 -54 68q-51 0 -54 -62v-124
q0 -68 53 -68z" />
    <glyph glyph-name="seven" unicode="7" horiz-adv-x="320" 
d="M12 585v93h286v-105l-149 -573h-113l152 585h-176z" />
    <glyph glyph-name="eight" unicode="8" horiz-adv-x="387" 
d="M193 -8q-86 0 -127.5 47t-41.5 128v74q0 102 75 136q-64 32 -64 118v28q0 80 40 121.5t118 41.5q79 0 119.5 -41.5t40.5 -121.5v-28q0 -86 -66 -118q76 -34 76 -136v-74q0 -81 -41.5 -128t-128.5 -47zM193 85q56 0 56 70v110q0 70 -56 70q-55 0 -55 -70v-110
q0 -70 55 -70zM193 419q52 0 52 65v46q0 65 -52 65q-51 0 -51 -65v-46q0 -65 51 -65z" />
    <glyph glyph-name="nine" unicode="9" horiz-adv-x="382" 
d="M191 686q86 0 126 -48.5t40 -132.5v-330q0 -84 -41 -133.5t-127 -49.5q-89 0 -125.5 44t-36.5 126v36h104v-45q0 -66 56 -66q57 0 57 70v146h-1q-28 -55 -94 -55q-126 0 -126 167v100q0 171 168 171zM191 593q-55 0 -55 -68v-118q0 -68 54 -68q51 0 54 62v124
q0 68 -53 68z" />
    <glyph glyph-name="colon" unicode=":" horiz-adv-x="167" 
d="M29 0v109h109v-109h-109zM29 241v110h109v-110h-109z" />
    <glyph glyph-name="semicolon" unicode=";" horiz-adv-x="167" 
d="M34 241v110h109v-110h-109zM142 109v-9l-58 -153h-64l14 162h108z" />
    <glyph glyph-name="less" unicode="&#x3c;" horiz-adv-x="325" 
d="M22 302v62l273 134v-101l-151 -64l151 -64v-101z" />
    <glyph glyph-name="equal" unicode="=" horiz-adv-x="365" 
d="M24 344v82h317v-82h-317zM24 214v82h317v-82h-317z" />
    <glyph glyph-name="greater" unicode="&#x3e;" horiz-adv-x="325" 
d="M303 364v-62l-273 -134v101l151 64l-151 64v101z" />
    <glyph glyph-name="question" unicode="?" horiz-adv-x="342" 
d="M202 136h-97v84q0 31 5.5 53t11.5 33.5t26 42.5l41 65q19 31 19 68v57q0 55 -42 55q-44 0 -44 -53v-85h-105v82q0 72 38.5 110t113.5 38q77 0 113 -35.5t36 -115.5v-54q0 -35 -8.5 -57.5t-33.5 -59.5l-46 -69q-11 -17 -15.5 -25t-8.5 -21.5t-4 -29.5v-83zM99 0v100h109
v-100h-109z" />
    <glyph glyph-name="at" unicode="@" horiz-adv-x="513" 
d="M383 537v-421q0 -32 26 -32t26 32v380q0 145 -177 145q-79 0 -129.5 -38.5t-50.5 -113.5v-372q0 -77 50 -119.5t138 -42.5h160v-45h-160q-111 0 -175 54t-64 153v372q0 95 68 146t163 51q98 0 163 -47.5t65 -142.5v-376q0 -86 -90 -86q-75 0 -88 59h-1q-22 -59 -85 -59
q-42 0 -68 27t-26 84v280q0 61 29 89.5t73 28.5q57 0 75 -45h2v39h76zM221 425v-281q0 -39 35 -39q34 0 34 39v280q0 47 -34 47q-35 0 -35 -46z" />
    <glyph glyph-name="A" unicode="A" horiz-adv-x="401" 
d="M115 0h-108l128 678h130l129 -678h-117l-21 124h-121zM195 487l-45 -272h91l-45 272h-1z" />
    <glyph glyph-name="B" unicode="B" horiz-adv-x="376" 
d="M25 0v678h165q83 0 117.5 -37t34.5 -112v-69q0 -86 -68 -108q85 -19 85 -113v-90q0 -74 -37 -111.5t-120 -37.5h-177zM188 305h-49v-212h50q56 0 56 55v102q0 55 -57 55zM139 585v-193h40q54 0 54 55v83q0 55 -55 55h-39z" />
    <glyph glyph-name="C" unicode="C" horiz-adv-x="378" 
d="M195 -8q-86 0 -128 50t-42 133v328q0 84 42 133.5t128 49.5q89 0 125 -44t36 -126v-80h-104v89q0 66 -55 66q-58 0 -58 -70v-364q0 -70 58 -70q55 0 55 66v125h104v-117q0 -169 -161 -169z" />
    <glyph glyph-name="D" unicode="D" horiz-adv-x="391" 
d="M139 93h48q65 0 65 69v355q0 68 -65 68h-48v-492zM201 678q165 0 165 -182v-314q0 -182 -165 -182h-176v678h176z" />
    <glyph glyph-name="E" unicode="E" horiz-adv-x="318" 
d="M25 0v678h272v-93h-158v-194h113v-92h-113v-206h158v-93h-272z" />
    <glyph glyph-name="F" unicode="F" horiz-adv-x="302" 
d="M25 0v678h267v-93h-153v-194h114v-92h-114v-299h-114z" />
    <glyph glyph-name="G" unicode="G" horiz-adv-x="384" 
d="M197 272v90h162v-362h-82v74q-24 -82 -109 -82q-71 0 -107 50t-36 133v328q0 84 42.5 133.5t128.5 49.5q89 0 126 -44.5t37 -125.5v-60h-104v69q0 66 -57 66q-59 0 -59 -70v-364q0 -70 56 -70t56 65v120h-54z" />
    <glyph glyph-name="H" unicode="H" horiz-adv-x="389" 
d="M249 0v299h-110v-299h-114v678h114v-287h110v287h115v-678h-115z" />
    <glyph glyph-name="I" unicode="I" horiz-adv-x="165" 
d="M25 0v678h114v-678h-114z" />
    <glyph glyph-name="J" unicode="J" horiz-adv-x="352" 
d="M214 678h114v-524q0 -162 -157 -162q-83 0 -116.5 40t-33.5 111v135h108v-137q0 -54 42 -54q43 0 43 55v536z" />
    <glyph glyph-name="K" unicode="K" horiz-adv-x="381" 
d="M258 0l-119 330v-330h-114v678h114v-298l124 298h112l-132 -305l135 -373h-120z" />
    <glyph glyph-name="L" unicode="L" horiz-adv-x="287" 
d="M25 0v678h114v-585h136v-93h-250z" />
    <glyph glyph-name="M" unicode="M" horiz-adv-x="468" 
d="M339 0v440h-3l-77 -440h-53l-85 440h-2v-440h-94v678h133l74 -382h1l66 382h144v-678h-104z" />
    <glyph glyph-name="N" unicode="N" horiz-adv-x="380" 
d="M255 0l-134 426v-426h-96v678h112l123 -389v389h95v-678h-100z" />
    <glyph glyph-name="O" unicode="O" horiz-adv-x="395" 
d="M197 87q59 0 59 70v364q0 70 -59 70q-58 0 -58 -70v-364q0 -70 58 -70zM197 -8q-86 0 -129 50t-43 133v328q0 84 43 133.5t129 49.5q87 0 130 -49.5t43 -133.5v-328q0 -83 -43 -133t-130 -50z" />
    <glyph glyph-name="P" unicode="P" horiz-adv-x="370" 
d="M25 0v678h169q83 0 120 -39t37 -113v-143q0 -75 -37 -114t-120 -39h-55v-230h-114zM181 585h-42v-267h42q56 0 56 56v156q0 55 -56 55z" />
    <glyph glyph-name="Q" unicode="Q" horiz-adv-x="395" 
d="M370 -86l-215 40v46q-130 23 -130 175v328q0 84 43 133.5t129 49.5q87 0 130 -49.5t43 -133.5v-328q0 -119 -84 -160l84 -16v-85zM197 81q29 0 44 19t15 51v370q0 70 -59 70q-58 0 -58 -70v-370q0 -32 14.5 -51t43.5 -19z" />
    <glyph glyph-name="R" unicode="R" horiz-adv-x="370" 
d="M246 0l-107 311v-311h-114v678h166q83 0 120 -39t37 -113v-87q0 -110 -91 -131l109 -308h-120zM177 585h-38v-211h38q56 0 56 56v100q0 55 -56 55z" />
    <glyph glyph-name="S" unicode="S" 
d="M180 -8q-83 0 -122 41.5t-39 112.5v91h106v-93q0 -60 56 -60q52 0 52 60v26q0 28 -11.5 49t-39.5 47l-67 67q-53 52 -74 89t-21 92v23q0 67 40 108t120 41q83 0 121 -39t38 -115v-55h-104v59q0 58 -54 58t-54 -56v-14q0 -26 12.5 -45t41.5 -47l73 -72q51 -52 71.5 -87.5
t20.5 -88.5v-33q0 -73 -41 -116t-125 -43z" />
    <glyph glyph-name="T" unicode="T" horiz-adv-x="328" 
d="M12 585v93h303v-93h-94v-585h-115v585h-94z" />
    <glyph glyph-name="U" unicode="U" horiz-adv-x="381" 
d="M251 678h105v-513q0 -173 -161 -173q-170 0 -170 173v513h114v-524q0 -67 56 -67t56 67v524z" />
    <glyph glyph-name="V" unicode="V" horiz-adv-x="397" 
d="M283 678h107l-129 -678h-124l-129 678h116l78 -473h1z" />
    <glyph glyph-name="W" unicode="W" horiz-adv-x="544" 
d="M272 419h-1l-64 -419h-107l-91 678h110l53 -430h1l57 430h93l63 -430h1l52 430h96l-88 -678h-108z" />
    <glyph glyph-name="X" unicode="X" horiz-adv-x="396" 
d="M11 0l108 359l-100 319h119l63 -224l65 224h108l-100 -324l111 -354h-119l-75 257l-72 -257h-108z" />
    <glyph glyph-name="Y" unicode="Y" horiz-adv-x="379" 
d="M373 678l-126 -420v-258h-114v258l-127 420h119l69 -257h1l69 257h109z" />
    <glyph glyph-name="Z" unicode="Z" horiz-adv-x="336" 
d="M316 585l-180 -492h173v-93h-292v93l179 492h-161v93h281v-93z" />
    <glyph glyph-name="bracketleft" unicode="[" horiz-adv-x="226" 
d="M37 -90v788h170v-73h-76v-643h76v-72h-170z" />
    <glyph glyph-name="backslash" unicode="\" horiz-adv-x="246" 
d="M10 698h89l145 -788h-89z" />
    <glyph glyph-name="bracketright" unicode="]" horiz-adv-x="226" 
d="M189 698v-788h-170v72h76v643h-76v73h170z" />
    <glyph glyph-name="asciicircum" unicode="^" horiz-adv-x="300" 
d="M129 678h42l114 -203h-91l-44 81l-44 -81h-91z" />
    <glyph glyph-name="underscore" unicode="_" horiz-adv-x="283" 
d="M-2 -90v69h287v-69h-287z" />
    <glyph glyph-name="grave" unicode="`" horiz-adv-x="400" 
d="M105 616v79l179 -38v-64z" />
    <glyph glyph-name="a" unicode="a" horiz-adv-x="359" 
d="M337 0h-110v47h-3q-33 -55 -90 -55q-116 0 -116 143v43q0 64 30.5 94t99.5 60q49 21 64 34.5t15 34.5v26q0 31 -10 44t-34 13q-49 0 -49 -58v-56h-100v48q0 157 153 157q79 0 114.5 -40t35.5 -119v-416zM176 80q51 0 51 60v145q-9 -10 -55 -35q-26 -15 -35 -30t-9 -45
v-35q0 -60 48 -60z" />
    <glyph glyph-name="b" unicode="b" 
d="M25 0v678h110v-169h2q29 66 100 66q107 0 107 -143v-297q0 -143 -112 -143q-40 0 -61 17.5t-34 47.5h-2v-57h-110zM234 139v288q0 58 -49 58q-48 0 -50 -51v-303q2 -50 50 -50q49 0 49 58z" />
    <glyph glyph-name="c" unicode="c" horiz-adv-x="359" 
d="M239 224h103v-67q0 -165 -156 -165q-80 0 -121.5 46.5t-41.5 125.5v239q0 79 41.5 125.5t121.5 46.5q156 0 156 -164v-41h-106v51q0 63 -50 63q-53 0 -53 -64v-273q0 -64 54 -64q52 0 52 64v77z" />
    <glyph glyph-name="d" unicode="d" 
d="M342 678v-678h-110v58h-2q-29 -66 -95 -66q-112 0 -112 143v297q0 143 108 143q71 0 99 -66h2v169h110zM133 427v-288q0 -58 49 -58q50 0 50 58v295q-3 51 -50 51q-49 0 -49 -58z" />
    <glyph glyph-name="e" unicode="e" 
d="M239 224h104v-67q0 -165 -157 -165q-80 0 -121.5 46.5t-41.5 125.5v239q0 79 41.5 125.5t121.5 46.5q157 0 157 -165v-137h-210v-126q0 -64 55 -64q51 0 51 64v77zM133 420v-67h104v67q0 64 -51 64q-53 0 -53 -64z" />
    <glyph glyph-name="f" unicode="f" horiz-adv-x="238" 
d="M14 483v84h40v17q0 49 25 71.5t81 22.5h64v-75h-37q-23 0 -23 -23v-13h60v-84h-60v-483h-110v483h-40z" />
    <glyph glyph-name="g" unicode="g" 
d="M232 567h109v-495q0 -170 -161 -170q-81 0 -119.5 37.5t-38.5 99.5v21h101v-14q0 -53 55 -53q54 0 54 62v99h-2q-28 -65 -95 -65q-112 0 -112 142v201q0 143 107 143q72 0 100 -66h2v58zM133 427v-192q0 -28 10.5 -42.5t37.5 -14.5q51 0 51 57v192q0 58 -50 58
q-49 0 -49 -58z" />
    <glyph glyph-name="h" unicode="h" 
d="M233 0v427q0 58 -48 58q-50 0 -50 -58v-427h-110v678h110v-169h2q28 66 99 66q107 0 107 -143v-432h-110z" />
    <glyph glyph-name="i" unicode="i" horiz-adv-x="160" 
d="M25 0v567h110v-567h-110zM25 592v86h110v-86h-110z" />
    <glyph glyph-name="j" unicode="j" horiz-adv-x="160" 
d="M25 567h110v-560q0 -54 -28 -75.5t-98 -21.5h-14v75h7q23 0 23 24v558zM25 592v86h110v-86h-110z" />
    <glyph glyph-name="k" unicode="k" horiz-adv-x="350" 
d="M349 0h-116l-98 273v-273h-110v678h110v-355l101 244h108l-110 -252z" />
    <glyph glyph-name="l" unicode="l" horiz-adv-x="160" 
d="M25 0v678h110v-678h-110z" />
    <glyph glyph-name="m" unicode="m" horiz-adv-x="559" 
d="M226 0v428q0 28 -9.5 42.5t-35.5 14.5q-46 0 -46 -57v-428h-110v567h110v-57h2q28 65 95 65q70 0 92 -66h3q29 66 102 66q55 0 81 -34.5t26 -107.5v-433h-110v428q0 28 -9.5 42.5t-34.5 14.5q-45 0 -47 -52v-433h-109z" />
    <glyph glyph-name="n" unicode="n" 
d="M233 0v427q0 58 -48 58q-50 0 -50 -58v-427h-110v567h110v-58h2q28 66 99 66q107 0 107 -143v-432h-110z" />
    <glyph glyph-name="o" unicode="o" horiz-adv-x="371" 
d="M186 -8q-80 0 -121.5 46.5t-41.5 125.5v239q0 79 41.5 125.5t121.5 46.5q79 0 120.5 -46.5t41.5 -125.5v-239q0 -79 -41.5 -125.5t-120.5 -46.5zM186 83q52 0 52 64v273q0 64 -52 64q-53 0 -53 -64v-273q0 -64 53 -64z" />
    <glyph glyph-name="p" unicode="p" 
d="M25 -90v657h110v-58h2q29 66 100 66q107 0 107 -143v-297q0 -143 -112 -143q-40 0 -61 17.5t-34 47.5h-2v-147h-110zM234 139v288q0 58 -49 58q-48 0 -50 -51v-303q2 -50 50 -50q49 0 49 58z" />
    <glyph glyph-name="q" unicode="q" 
d="M341 567v-657h-109v148h-2q-29 -66 -95 -66q-112 0 -112 143v297q0 143 107 143q72 0 100 -66h2v58h109zM133 427v-288q0 -58 48 -58t51 50v296q0 58 -50 58q-49 0 -49 -58z" />
    <glyph glyph-name="r" unicode="r" horiz-adv-x="236" 
d="M223 571v-129h-31q-57 0 -57 -57v-385h-110v567h110v-58h2q21 60 86 62z" />
    <glyph glyph-name="s" unicode="s" horiz-adv-x="343" 
d="M324 161v-19q0 -71 -38 -110.5t-115 -39.5q-75 0 -113 40.5t-38 114.5v59h99v-64q0 -59 51 -59q50 0 50 51v16q0 21 -13.5 38t-51.5 47l-42 33q-48 37 -68.5 70.5t-20.5 83.5v14q0 64 37.5 101.5t112.5 37.5q78 0 112 -38.5t34 -112.5v-31h-98v36q0 55 -48 55
q-47 0 -47 -45v-9q0 -20 11.5 -36t41.5 -36l40 -32q63 -50 83.5 -80t20.5 -85z" />
    <glyph glyph-name="t" unicode="t" horiz-adv-x="246" 
d="M12 483v84h41v111h109v-111h69v-84h-69v-363q0 -17 7.5 -24t26.5 -7h35v-89h-47q-73 0 -102 28.5t-29 97.5v357h-41z" />
    <glyph glyph-name="u" unicode="u" 
d="M133 567v-427q0 -58 48 -58q50 0 50 58v427h110v-567h-110v58h-2q-29 -66 -100 -66q-106 0 -106 143v432h110z" />
    <glyph glyph-name="v" unicode="v" horiz-adv-x="344" 
d="M241 567h101l-109 -567h-122l-109 567h113l62 -379h1z" />
    <glyph glyph-name="w" unicode="w" horiz-adv-x="490" 
d="M387 567h98l-85 -567h-99l-54 350l-59 -350h-98l-86 567h111l38 -340h1l57 340h81l57 -340h1z" />
    <glyph glyph-name="x" unicode="x" horiz-adv-x="353" 
d="M237 567h102l-86 -269l97 -298h-113l-66 213l-65 -213h-103l96 303l-86 264h112l56 -182z" />
    <glyph glyph-name="y" unicode="y" horiz-adv-x="338" 
d="M236 567h100l-114 -559q-11 -54 -41.5 -76t-92.5 -22h-38v88h36q18 0 26.5 7t14.5 28l4 18h-26l-103 516h114l52 -348h1z" />
    <glyph glyph-name="z" unicode="z" horiz-adv-x="305" 
d="M283 479l-153 -391h152v-88h-263v88l153 391h-144v88h255v-88z" />
    <glyph glyph-name="braceleft" unicode="{" horiz-adv-x="251" 
d="M27 267h-8v74h8q33 0 45 14t9 44l-16 142q-9 78 25 117.5t120 39.5h22v-73h-27q-55 0 -47 -66l17 -148q10 -85 -66 -107q76 -20 66 -107l-17 -148q-8 -66 46 -66h28v-73h-22q-86 0 -120 39.5t-25 117.5l16 142q3 30 -9 44t-45 14z" />
    <glyph glyph-name="bar" unicode="|" horiz-adv-x="153" 
d="M32 698h85v-788h-85v788z" />
    <glyph glyph-name="braceright" unicode="}" horiz-adv-x="251" 
d="M224 341h8v-74h-8q-33 0 -45 -14t-9 -44l16 -142q9 -78 -25 -117.5t-120 -39.5h-22v73h27q55 0 47 66l-17 148q-10 85 66 107q-76 20 -66 107l17 148q8 66 -47 66h-27v73h22q86 0 120 -39.5t25 -117.5l-16 -142q-3 -30 9 -44t45 -14z" />
    <glyph glyph-name="asciitilde" unicode="~" horiz-adv-x="260" 
d="M78 263h-69q2 47 21.5 76t57.5 29q18 0 44 -10.5t34 -10.5q16 0 16 19h69q-5 -105 -79 -105q-18 0 -43.5 10.5t-33.5 10.5q-17 0 -17 -19z" />
    <glyph glyph-name="exclamdown" unicode="&#xa1;" horiz-adv-x="166" 
d="M137 588v-100h-109v100h109zM110 452l32 -542h-118l31 542h55z" />
    <glyph glyph-name="cent" unicode="&#xa2;" horiz-adv-x="359" 
d="M171 -50v43q-73 4 -110.5 50t-37.5 121v239q0 75 37.5 121t110.5 50v52h33v-52q138 -9 138 -163v-41h-106v51q0 50 -32 60v-396q35 9 35 62v77h103v-67q0 -155 -138 -164v-43h-33zM133 147q0 -53 38 -63v398q-38 -8 -38 -62v-273z" />
    <glyph glyph-name="sterling" unicode="&#xa3;" 
d="M8 278v85h35v164q0 83 38.5 121t116.5 38q74 0 112 -38t38 -110v-61h-105v64q0 53 -42 53q-44 0 -44 -56v-175h118v-85h-118v-185h188v-93h-302v278h-35z" />
    <glyph glyph-name="yen" unicode="&#xa5;" horiz-adv-x="379" 
d="M35 211h98v28h-98v62h97l-126 377h119l69 -239h1l69 239h109l-125 -377h96v-62h-97v-28h97v-62h-97v-149h-114v149h-98v62z" />
    <glyph glyph-name="brokenbar" unicode="&#xa6;" horiz-adv-x="153" 
d="M117 -90h-85v370h85v-370zM32 698h85v-356h-85v356z" />
    <glyph glyph-name="section" unicode="&#xa7;" horiz-adv-x="410" 
d="M21 310q0 78 85 108v3q-51 45 -51 119v11q0 61 38.5 98t110.5 37q74 0 112.5 -40t38.5 -113v-31h-96v36q0 29 -15 44.5t-42 15.5q-53 0 -53 -47v-8q0 -17 8.5 -29t31.5 -26l116 -71q45 -28 64.5 -56t19.5 -71q0 -81 -86 -110v-3q55 -45 55 -115v-21q0 -139 -152 -139
q-74 0 -113 40.5t-39 112.5v41h99v-46q0 -57 55 -57q54 0 54 49v11q0 19 -10 31.5t-41 31.5l-107 65q-83 51 -83 129zM117 330q0 -22 10 -36t37 -30l86 -52q43 17 43 55q0 24 -10 37.5t-38 29.5l-89 53q-39 -16 -39 -57z" />
    <glyph glyph-name="dieresis" unicode="&#xa8;" horiz-adv-x="400" 
d="M91 592v86h97v-86h-97zM212 592v86h97v-86h-97z" />
    <glyph glyph-name="copyright" unicode="&#xa9;" horiz-adv-x="416" 
d="M388 366v-60q0 -87 -47.5 -141.5t-132.5 -54.5t-132.5 54.5t-47.5 141.5v60q0 87 47.5 141.5t132.5 54.5t132.5 -54.5t47.5 -141.5zM59 366v-60q0 -78 38 -124t111 -46t111 46t38 124v60q0 78 -38 124t-111 46t-111 -46t-38 -124zM234 317h61v-38q0 -89 -86 -89
q-44 0 -66.5 25.5t-22.5 68.5v102q0 43 22.5 68.5t66.5 25.5q86 0 86 -89v-22h-63v28q0 30 -23 30q-25 0 -25 -30v-124q0 -30 26 -30q24 0 24 30v44z" />
    <glyph glyph-name="ordfeminine" unicode="&#xaa;" horiz-adv-x="316" 
d="M297 188h-98v41h-3q-29 -48 -78 -48q-100 0 -100 124v37q0 55 27 82t85 52q43 19 56 30.5t13 29.5v21q0 25 -8 35.5t-29 10.5q-23 0 -32 -11.5t-9 -35.5v-48h-89v41q0 136 133 136q132 0 132 -137v-360zM156 259q43 0 43 52v121q-7 -7 -48 -30q-22 -12 -28.5 -24
t-6.5 -39v-28q0 -52 40 -52z" />
    <glyph glyph-name="guillemotleft" unicode="&#xab;" horiz-adv-x="289" 
d="M75 378h79l-54 -146l54 -146h-79l-56 146zM191 378h79l-54 -146l54 -146h-79l-56 146z" />
    <glyph glyph-name="registered" unicode="&#xae;" horiz-adv-x="416" 
d="M388 489v-60q0 -87 -47.5 -141.5t-132.5 -54.5t-132.5 54.5t-47.5 141.5v60q0 87 47.5 141.5t132.5 54.5t132.5 -54.5t47.5 -141.5zM59 489v-60q0 -78 38 -124t111 -46t111 46t38 124v60q0 78 -38 124t-111 46t-111 -46t-38 -124zM234 319l-46 133v-133h-57v284h84
q73 0 73 -68v-29q0 -52 -40 -62l45 -125h-59zM209 557h-21v-79h21q23 0 23 22v35q0 22 -23 22z" />
    <glyph glyph-name="macron" unicode="&#xaf;" horiz-adv-x="400" 
d="M102 600v67h196v-67h-196z" />
    <glyph glyph-name="degree" unicode="&#xb0;" horiz-adv-x="200" 
d="M17 599q0 35 23.5 59t59.5 24t59.5 -24t23.5 -59t-23.5 -59t-59.5 -24t-59.5 24t-23.5 59zM66 599q0 -16 9.5 -26.5t24.5 -10.5t24.5 10.5t9.5 26.5t-9.5 26.5t-24.5 10.5t-24.5 -10.5t-9.5 -26.5z" />
    <glyph glyph-name="twosuperior" unicode="&#xb2;" horiz-adv-x="214" 
d="M25 396v47q0 35 9 52t35 35l35 25q16 11 16 35v19q0 19 -15 19q-16 0 -16 -22v-25h-64v24q0 77 80 77q42 0 62 -17.5t20 -56.5v-22q0 -46 -35 -71l-43 -30q-13 -9 -16 -14.5t-3 -19.5v-1h92v-54h-157z" />
    <glyph glyph-name="threesuperior" unicode="&#xb3;" horiz-adv-x="215" 
d="M106 682q78 0 78 -73v-18q0 -38 -34 -47q38 -7 38 -49v-29q0 -74 -84 -74q-82 0 -82 78v27h63v-30q0 -24 19 -24q17 0 17 22v30q0 14 -4.5 19t-18.5 5h-22v46h17q16 0 21.5 5.5t5.5 19.5v19q0 22 -17 22t-17 -24v-20h-63v17q0 78 83 78z" />
    <glyph glyph-name="acute" unicode="&#xb4;" horiz-adv-x="400" 
d="M295 695v-79l-179 -23v64z" />
    <glyph glyph-name="paragraph" unicode="&#xb6;" 
d="M225 0h-77v290h-8q-121 0 -121 109v170q0 109 121 109h201v-678h-77v601h-39v-601z" />
    <glyph glyph-name="periodcentered" unicode="&#xb7;" horiz-adv-x="167" 
d="M29 291v110h109v-110h-109z" />
    <glyph glyph-name="cedilla" unicode="&#xb8;" horiz-adv-x="400" 
d="M128 -101v32q37 1 37 16q0 11 -16 11h-5v42h43v-17q42 -6 42 -36q0 -48 -101 -48z" />
    <glyph glyph-name="onesuperior" unicode="&#xb9;" horiz-adv-x="157" 
d="M66 678h61v-282h-72v198h-1l-39 -33h-1v67z" />
    <glyph glyph-name="ordmasculine" unicode="&#xba;" horiz-adv-x="321" 
d="M161 181q-69 0 -106 40.5t-37 108.5v206q0 69 36.5 109t106.5 40q69 0 105.5 -40t36.5 -109v-206q0 -68 -36.5 -108.5t-105.5 -40.5zM161 262q44 0 44 55v232q0 55 -44 55q-45 0 -45 -55v-232q0 -55 45 -55z" />
    <glyph glyph-name="guillemotright" unicode="&#xbb;" horiz-adv-x="289" 
d="M135 378h79l56 -146l-56 -146h-79l54 146zM19 378h79l56 -146l-56 -146h-79l54 146z" />
    <glyph glyph-name="onequarter" unicode="&#xbc;" horiz-adv-x="262" 
d="M26 317v45h215v-45h-215zM105 678h61v-282h-72v198h-1l-39 -33h-1v67zM23 39v39l99 204h70v-196h23v-47h-23v-39h-68v39h-101zM124 187l-45 -101h46v101h-1z" />
    <glyph glyph-name="onehalf" unicode="&#xbd;" horiz-adv-x="258" 
d="M21 317v45h216v-45h-216zM101 678h61v-282h-72v198h-1l-39 -33h-1v67zM48 0v47q0 35 9 52t35 35l35 25q16 11 16 35v19q0 19 -15 19q-16 0 -16 -22v-25h-64v24q0 77 80 77q42 0 62 -17.5t20 -56.5v-22q0 -46 -35 -71l-43 -30q-13 -9 -16 -14.5t-3 -19.5v-1h92v-54h-157z
" />
    <glyph glyph-name="threequarters" unicode="&#xbe;" horiz-adv-x="253" 
d="M22 317v45h210v-45h-210zM127 682q78 0 78 -73v-18q0 -38 -34 -47q38 -7 38 -49v-29q0 -74 -84 -74q-82 0 -82 78v27h63v-30q0 -24 19 -24q17 0 17 22v30q0 14 -4.5 19t-18.5 5h-22v46h17q16 0 21.5 5.5t5.5 19.5v19q0 22 -17 22t-17 -24v-20h-63v17q0 78 83 78zM24 39
v39l99 204h70v-196h23v-47h-23v-39h-68v39h-101zM125 187l-45 -101h46v101h-1z" />
    <glyph glyph-name="questiondown" unicode="&#xbf;" horiz-adv-x="342" 
d="M140 452h97v-84q0 -31 -5.5 -53t-11.5 -33.5t-26 -42.5l-41 -65q-19 -31 -19 -68v-57q0 -55 42 -55q44 0 44 53v85h105v-82q0 -72 -38.5 -110t-113.5 -38q-77 0 -113 35.5t-36 115.5v54q0 35 8.5 57.5t33.5 59.5l46 69q11 17 15.5 25t8.5 21.5t4 29.5v83zM243 588v-100
h-109v100h109z" />
    <glyph glyph-name="Agrave" unicode="&#xc0;" horiz-adv-x="401" 
d="M115 0h-108l128 678h130l129 -678h-117l-21 124h-121zM109 726v79l179 -38v-64zM195 487l-45 -272h91l-45 272h-1z" />
    <glyph glyph-name="Aacute" unicode="&#xc1;" horiz-adv-x="401" 
d="M115 0h-108l128 678h130l129 -678h-117l-21 124h-121zM293 805v-79l-179 -23v64zM195 487l-45 -272h91l-45 272h-1z" />
    <glyph glyph-name="Acircumflex" unicode="&#xc2;" horiz-adv-x="401" 
d="M115 0h-108l128 678h130l129 -678h-117l-21 124h-121zM201 732l-98 -29v55l72 53h50l72 -53v-55zM195 487l-45 -272h91l-45 272h-1z" />
    <glyph glyph-name="Atilde" unicode="&#xc3;" horiz-adv-x="401" 
d="M115 0h-108l128 678h130l129 -678h-117l-21 124h-121zM152 705h-56q4 85 70 85q16 0 39 -8.5t29 -8.5q14 0 14 15h56q-4 -85 -70 -85q-16 0 -39 8.5t-29 8.5q-14 0 -14 -15zM195 487l-45 -272h91l-45 272h-1z" />
    <glyph glyph-name="Adieresis" unicode="&#xc4;" horiz-adv-x="401" 
d="M115 0h-108l128 678h130l129 -678h-117l-21 124h-121zM195 487l-45 -272h91l-45 272h-1zM91 702v86h97v-86h-97zM212 702v86h97v-86h-97z" />
    <glyph glyph-name="Aring" unicode="&#xc5;" horiz-adv-x="401" 
d="M115 0h-108l128 678h130l129 -678h-117l-21 124h-121zM122 766q0 31 22 53t55 22t54.5 -22t21.5 -53t-21.5 -53t-54.5 -22t-55 22t-22 53zM195 487l-45 -272h91l-45 272h-1zM168 766q0 -14 8.5 -23.5t22.5 -9.5t22.5 9.5t8.5 23.5t-8.5 23.5t-22.5 9.5t-22.5 -9.5
t-8.5 -23.5z" />
    <glyph glyph-name="AE" unicode="&#xc6;" horiz-adv-x="541" 
d="M113 0h-108l173 678h342v-93h-158v-194h113v-92h-113v-206h158v-93h-272v124h-106zM247 573l-84 -358h85v358h-1z" />
    <glyph glyph-name="Ccedilla" unicode="&#xc7;" horiz-adv-x="378" 
d="M146 -101v32q37 1 37 16q0 11 -16 11h-5v37q-70 9 -103.5 57t-33.5 123v328q0 84 42 133.5t128 49.5q89 0 125 -44t36 -126v-80h-104v89q0 66 -55 66q-58 0 -58 -70v-364q0 -70 58 -70q55 0 55 66v125h104v-117q0 -164 -151 -169v-9q42 -6 42 -36q0 -48 -101 -48z" />
    <glyph glyph-name="Egrave" unicode="&#xc8;" horiz-adv-x="318" 
d="M25 0v678h272v-93h-158v-194h113v-92h-113v-206h158v-93h-272zM78 726v79l179 -38v-64z" />
    <glyph glyph-name="Eacute" unicode="&#xc9;" horiz-adv-x="318" 
d="M25 0v678h272v-93h-158v-194h113v-92h-113v-206h158v-93h-272zM262 805v-79l-179 -23v64z" />
    <glyph glyph-name="Ecircumflex" unicode="&#xca;" horiz-adv-x="318" 
d="M25 0v678h272v-93h-158v-194h113v-92h-113v-206h158v-93h-272zM170 732l-98 -29v55l72 53h50l72 -53v-55z" />
    <glyph glyph-name="Edieresis" unicode="&#xcb;" horiz-adv-x="318" 
d="M25 0v678h272v-93h-158v-194h113v-92h-113v-206h158v-93h-272zM60 702v86h97v-86h-97zM181 702v86h97v-86h-97z" />
    <glyph glyph-name="Igrave" unicode="&#xcc;" horiz-adv-x="165" 
d="M25 0v678h114v-678h-114zM-9 726v79l179 -38v-64z" />
    <glyph glyph-name="Iacute" unicode="&#xcd;" horiz-adv-x="165" 
d="M25 0v678h114v-678h-114zM175 805v-79l-179 -23v64z" />
    <glyph glyph-name="Icircumflex" unicode="&#xce;" horiz-adv-x="165" 
d="M25 0v678h114v-678h-114zM83 732l-88 -29v55l62 53h50l62 -53v-55z" />
    <glyph glyph-name="Idieresis" unicode="&#xcf;" horiz-adv-x="165" 
d="M25 0v678h114v-678h-114zM-12 702v86h84v-86h-84zM92 702v86h84v-86h-84z" />
    <glyph glyph-name="Eth" unicode="&#xd0;" horiz-adv-x="391" 
d="M-4 299v92h29v287h176q165 0 165 -182v-314q0 -182 -165 -182h-176v299h-29zM139 93h48q65 0 65 69v355q0 68 -65 68h-48v-194h73v-92h-73v-206z" />
    <glyph glyph-name="Ntilde" unicode="&#xd1;" horiz-adv-x="380" 
d="M255 0l-134 426v-426h-96v678h112l123 -389v389h95v-678h-100zM153 705h-56q4 85 70 85q16 0 39 -8.5t29 -8.5q14 0 14 15h56q-4 -85 -70 -85q-16 0 -39 8.5t-29 8.5q-14 0 -14 -15z" />
    <glyph glyph-name="Ograve" unicode="&#xd2;" horiz-adv-x="395" 
d="M197 87q59 0 59 70v364q0 70 -59 70q-58 0 -58 -70v-364q0 -70 58 -70zM197 -8q-86 0 -129 50t-43 133v328q0 84 43 133.5t129 49.5q87 0 130 -49.5t43 -133.5v-328q0 -83 -43 -133t-130 -50zM106 726v79l179 -38v-64z" />
    <glyph glyph-name="Oacute" unicode="&#xd3;" horiz-adv-x="395" 
d="M197 87q59 0 59 70v364q0 70 -59 70q-58 0 -58 -70v-364q0 -70 58 -70zM197 -8q-86 0 -129 50t-43 133v328q0 84 43 133.5t129 49.5q87 0 130 -49.5t43 -133.5v-328q0 -83 -43 -133t-130 -50zM290 805v-79l-179 -23v64z" />
    <glyph glyph-name="Ocircumflex" unicode="&#xd4;" horiz-adv-x="395" 
d="M197 87q59 0 59 70v364q0 70 -59 70q-58 0 -58 -70v-364q0 -70 58 -70zM197 -8q-86 0 -129 50t-43 133v328q0 84 43 133.5t129 49.5q87 0 130 -49.5t43 -133.5v-328q0 -83 -43 -133t-130 -50zM198 732l-98 -29v55l72 53h50l72 -53v-55z" />
    <glyph glyph-name="Otilde" unicode="&#xd5;" horiz-adv-x="395" 
d="M197 87q59 0 59 70v364q0 70 -59 70q-58 0 -58 -70v-364q0 -70 58 -70zM197 -8q-86 0 -129 50t-43 133v328q0 84 43 133.5t129 49.5q87 0 130 -49.5t43 -133.5v-328q0 -83 -43 -133t-130 -50zM149 705h-56q4 85 70 85q16 0 39 -8.5t29 -8.5q14 0 14 15h56q-4 -85 -70 -85
q-16 0 -39 8.5t-29 8.5q-14 0 -14 -15z" />
    <glyph glyph-name="Odieresis" unicode="&#xd6;" horiz-adv-x="395" 
d="M197 87q59 0 59 70v364q0 70 -59 70q-58 0 -58 -70v-364q0 -70 58 -70zM197 -8q-86 0 -129 50t-43 133v328q0 84 43 133.5t129 49.5q87 0 130 -49.5t43 -133.5v-328q0 -83 -43 -133t-130 -50zM88 702v86h97v-86h-97zM209 702v86h97v-86h-97z" />
    <glyph glyph-name="multiply" unicode="&#xd7;" horiz-adv-x="350" 
d="M86 186l-63 63l89 89l-88 88l63 63l88 -89l89 89l63 -63l-89 -89l89 -88l-63 -62l-89 88z" />
    <glyph glyph-name="Oslash" unicode="&#xd8;" horiz-adv-x="395" 
d="M197 -8q-66 0 -107 29l-16 -39h-49l31 75q-31 46 -31 118v328q0 84 43 133.5t129 49.5q65 0 108 -30l16 39h49l-31 -74q31 -46 31 -118v-328q0 -83 -43 -133t-130 -50zM135 524v-277l123 296q-10 51 -61 51q-29 0 -45.5 -19t-16.5 -51zM197 84q30 0 46.5 19t16.5 51v276
l-123 -297q10 -49 60 -49z" />
    <glyph glyph-name="Ugrave" unicode="&#xd9;" horiz-adv-x="381" 
d="M251 678h105v-513q0 -173 -161 -173q-170 0 -170 173v513h114v-524q0 -67 56 -67t56 67v524zM102 726v79l179 -38v-64z" />
    <glyph glyph-name="Uacute" unicode="&#xda;" horiz-adv-x="381" 
d="M251 678h105v-513q0 -173 -161 -173q-170 0 -170 173v513h114v-524q0 -67 56 -67t56 67v524zM286 805v-79l-179 -23v64z" />
    <glyph glyph-name="Ucircumflex" unicode="&#xdb;" horiz-adv-x="381" 
d="M251 678h105v-513q0 -173 -161 -173q-170 0 -170 173v513h114v-524q0 -67 56 -67t56 67v524zM194 732l-98 -29v55l72 53h50l72 -53v-55z" />
    <glyph glyph-name="Udieresis" unicode="&#xdc;" horiz-adv-x="381" 
d="M251 678h105v-513q0 -173 -161 -173q-170 0 -170 173v513h114v-524q0 -67 56 -67t56 67v524zM84 702v86h97v-86h-97zM205 702v86h97v-86h-97z" />
    <glyph glyph-name="Yacute" unicode="&#xdd;" horiz-adv-x="379" 
d="M373 678l-126 -420v-258h-114v258l-127 420h119l69 -257h1l69 257h109zM280 805v-79l-179 -23v64z" />
    <glyph glyph-name="Thorn" unicode="&#xde;" horiz-adv-x="370" 
d="M25 -1v679h114v-108h55q83 0 120 -39t37 -113v-133q0 -75 -37 -114t-120 -39h-55v-133h-114zM181 477h-42v-257h42q56 0 56 56v146q0 55 -56 55z" />
    <glyph glyph-name="germandbls" unicode="&#xdf;" horiz-adv-x="369" 
d="M135 535v-535h-110v528q0 75 42.5 116.5t122.5 41.5q69 0 105 -31t36 -76q0 -35 -19 -58t-54 -29q88 -14 88 -114v-229q0 -75 -34.5 -112t-116.5 -37h-33v89h20q54 0 54 57v245q0 55 -55 55h-19v84h13q57 0 57 37q0 16 -11.5 25.5t-31.5 9.5q-29 0 -41.5 -15.5
t-12.5 -51.5z" />
    <glyph glyph-name="agrave" unicode="&#xe0;" horiz-adv-x="359" 
d="M337 0h-110v47h-3q-33 -55 -90 -55q-116 0 -116 143v43q0 64 30.5 94t99.5 60q49 21 64 34.5t15 34.5v26q0 31 -10 44t-34 13q-49 0 -49 -58v-56h-100v48q0 157 153 157q79 0 114.5 -40t35.5 -119v-416zM176 80q51 0 51 60v145q-9 -10 -55 -35q-26 -15 -35 -30t-9 -45
v-35q0 -60 48 -60zM96 616v79l179 -38v-64z" />
    <glyph glyph-name="aacute" unicode="&#xe1;" horiz-adv-x="359" 
d="M337 0h-110v47h-3q-33 -55 -90 -55q-116 0 -116 143v43q0 64 30.5 94t99.5 60q49 21 64 34.5t15 34.5v26q0 31 -10 44t-34 13q-49 0 -49 -58v-56h-100v48q0 157 153 157q79 0 114.5 -40t35.5 -119v-416zM176 80q51 0 51 60v145q-9 -10 -55 -35q-26 -15 -35 -30t-9 -45
v-35q0 -60 48 -60zM280 695v-79l-179 -23v64z" />
    <glyph glyph-name="acircumflex" unicode="&#xe2;" horiz-adv-x="359" 
d="M337 0h-110v47h-3q-33 -55 -90 -55q-116 0 -116 143v43q0 64 30.5 94t99.5 60q49 21 64 34.5t15 34.5v26q0 31 -10 44t-34 13q-49 0 -49 -58v-56h-100v48q0 157 153 157q79 0 114.5 -40t35.5 -119v-416zM176 80q51 0 51 60v145q-9 -10 -55 -35q-26 -15 -35 -30t-9 -45
v-35q0 -60 48 -60zM188 622l-98 -29v55l72 53h50l72 -53v-55z" />
    <glyph glyph-name="atilde" unicode="&#xe3;" horiz-adv-x="359" 
d="M337 0h-110v47h-3q-33 -55 -90 -55q-116 0 -116 143v43q0 64 30.5 94t99.5 60q49 21 64 34.5t15 34.5v26q0 31 -10 44t-34 13q-49 0 -49 -58v-56h-100v48q0 157 153 157q79 0 114.5 -40t35.5 -119v-416zM176 80q51 0 51 60v145q-9 -10 -55 -35q-26 -15 -35 -30t-9 -45
v-35q0 -60 48 -60zM139 595h-56q4 85 70 85q16 0 39 -8.5t29 -8.5q14 0 14 15h56q-4 -85 -70 -85q-16 0 -39 8.5t-29 8.5q-14 0 -14 -15z" />
    <glyph glyph-name="adieresis" unicode="&#xe4;" horiz-adv-x="359" 
d="M337 0h-110v47h-3q-33 -55 -90 -55q-116 0 -116 143v43q0 64 30.5 94t99.5 60q49 21 64 34.5t15 34.5v26q0 31 -10 44t-34 13q-49 0 -49 -58v-56h-100v48q0 157 153 157q79 0 114.5 -40t35.5 -119v-416zM176 80q51 0 51 60v145q-9 -10 -55 -35q-26 -15 -35 -30t-9 -45
v-35q0 -60 48 -60zM78 592v86h97v-86h-97zM199 592v86h97v-86h-97z" />
    <glyph glyph-name="aring" unicode="&#xe5;" horiz-adv-x="359" 
d="M337 0h-110v47h-3q-33 -55 -90 -55q-116 0 -116 143v43q0 64 30.5 94t99.5 60q49 21 64 34.5t15 34.5v26q0 31 -10 44t-34 13q-49 0 -49 -58v-56h-100v48q0 157 153 157q79 0 114.5 -40t35.5 -119v-416zM176 80q51 0 51 60v145q-9 -10 -55 -35q-26 -15 -35 -30t-9 -45
v-35q0 -60 48 -60zM111 666q0 31 22 53t55 22t54.5 -22t21.5 -53t-21.5 -53t-54.5 -22t-55 22t-22 53zM157 666q0 -14 8.5 -23.5t22.5 -9.5t22.5 9.5t8.5 23.5t-8.5 23.5t-22.5 9.5t-22.5 -9.5t-8.5 -23.5z" />
    <glyph glyph-name="ae" unicode="&#xe6;" horiz-adv-x="570" 
d="M443 224h104v-67q0 -165 -157 -165q-91 0 -123 66h-1q-30 -66 -119 -66q-129 0 -129 143v61q0 145 130 145h79v86q0 31 -10 44t-34 13q-49 0 -49 -58v-56h-100v48q0 157 147 157q73 0 107 -45q40 45 105 45q78 0 116 -43t38 -122v-149h-210v-114q0 -64 55 -64q51 0 51 64
v77zM176 80q51 0 51 60l-1 121h-42q-32 0 -44 -15.5t-12 -52.5v-53q0 -60 48 -60zM337 420v-79h104v79q0 64 -51 64q-53 0 -53 -64z" />
    <glyph glyph-name="ccedilla" unicode="&#xe7;" horiz-adv-x="359" 
d="M140 -101v32q37 1 37 16q0 11 -16 11h-5v36q-66 9 -99.5 54t-33.5 116v239q0 79 41.5 125.5t121.5 46.5q156 0 156 -164v-41h-106v51q0 63 -50 63q-53 0 -53 -64v-273q0 -64 54 -64q52 0 52 64v77h103v-67q0 -157 -143 -164v-10q42 -6 42 -36q0 -48 -101 -48z" />
    <glyph glyph-name="egrave" unicode="&#xe8;" 
d="M239 224h104v-67q0 -165 -157 -165q-80 0 -121.5 46.5t-41.5 125.5v239q0 79 41.5 125.5t121.5 46.5q157 0 157 -165v-137h-210v-126q0 -64 55 -64q51 0 51 64v77zM98 616v79l179 -38v-64zM133 420v-67h104v67q0 64 -51 64q-53 0 -53 -64z" />
    <glyph glyph-name="eacute" unicode="&#xe9;" 
d="M239 224h104v-67q0 -165 -157 -165q-80 0 -121.5 46.5t-41.5 125.5v239q0 79 41.5 125.5t121.5 46.5q157 0 157 -165v-137h-210v-126q0 -64 55 -64q51 0 51 64v77zM282 695v-79l-179 -23v64zM133 420v-67h104v67q0 64 -51 64q-53 0 -53 -64z" />
    <glyph glyph-name="ecircumflex" unicode="&#xea;" 
d="M239 224h104v-67q0 -165 -157 -165q-80 0 -121.5 46.5t-41.5 125.5v239q0 79 41.5 125.5t121.5 46.5q157 0 157 -165v-137h-210v-126q0 -64 55 -64q51 0 51 64v77zM190 622l-98 -29v55l72 53h50l72 -53v-55zM133 420v-67h104v67q0 64 -51 64q-53 0 -53 -64z" />
    <glyph glyph-name="edieresis" unicode="&#xeb;" 
d="M239 224h104v-67q0 -165 -157 -165q-80 0 -121.5 46.5t-41.5 125.5v239q0 79 41.5 125.5t121.5 46.5q157 0 157 -165v-137h-210v-126q0 -64 55 -64q51 0 51 64v77zM133 420v-67h104v67q0 64 -51 64q-53 0 -53 -64zM80 592v86h97v-86h-97zM201 592v86h97v-86h-97z" />
    <glyph glyph-name="igrave" unicode="&#xec;" horiz-adv-x="160" 
d="M25 0v567h110v-567h-110zM4 616v79l149 -38v-64z" />
    <glyph glyph-name="iacute" unicode="&#xed;" horiz-adv-x="160" 
d="M25 0v567h110v-567h-110zM158 695v-79l-149 -23v64z" />
    <glyph glyph-name="icircumflex" unicode="&#xee;" horiz-adv-x="160" 
d="M25 0v567h110v-567h-110zM81 622l-83 -29v55l57 53h50l57 -53v-55z" />
    <glyph glyph-name="idieresis" unicode="&#xef;" horiz-adv-x="160" 
d="M25 0v567h110v-567h-110zM-14 592v86h84v-86h-84zM90 592v86h84v-86h-84z" />
    <glyph glyph-name="eth" unicode="&#xf0;" horiz-adv-x="371" 
d="M58 569v45l58 15l-38 49h120l17 -22l74 20v-45l-44 -12l26 -31q42 -52 59.5 -86.5t17.5 -80.5v-257q0 -79 -41.5 -125.5t-120.5 -46.5q-80 0 -121.5 46.5t-41.5 125.5v239q0 75 30.5 114t82.5 39q31 0 55 -24q-4 10 -16 25l-29 35zM186 83q52 0 52 64v273q0 64 -52 64
q-53 0 -53 -64v-273q0 -64 53 -64z" />
    <glyph glyph-name="ntilde" unicode="&#xf1;" 
d="M233 0v427q0 58 -48 58q-50 0 -50 -58v-427h-110v567h110v-58h2q28 66 99 66q107 0 107 -143v-432h-110zM139 595h-56q4 85 70 85q16 0 39 -8.5t29 -8.5q14 0 14 15h56q-4 -85 -70 -85q-16 0 -39 8.5t-29 8.5q-14 0 -14 -15z" />
    <glyph glyph-name="ograve" unicode="&#xf2;" horiz-adv-x="371" 
d="M186 -8q-80 0 -121.5 46.5t-41.5 125.5v239q0 79 41.5 125.5t121.5 46.5q79 0 120.5 -46.5t41.5 -125.5v-239q0 -79 -41.5 -125.5t-120.5 -46.5zM186 83q52 0 52 64v273q0 64 -52 64q-53 0 -53 -64v-273q0 -64 53 -64zM94 616v79l179 -38v-64z" />
    <glyph glyph-name="oacute" unicode="&#xf3;" horiz-adv-x="371" 
d="M186 -8q-80 0 -121.5 46.5t-41.5 125.5v239q0 79 41.5 125.5t121.5 46.5q79 0 120.5 -46.5t41.5 -125.5v-239q0 -79 -41.5 -125.5t-120.5 -46.5zM186 83q52 0 52 64v273q0 64 -52 64q-53 0 -53 -64v-273q0 -64 53 -64zM278 695v-79l-179 -23v64z" />
    <glyph glyph-name="ocircumflex" unicode="&#xf4;" horiz-adv-x="371" 
d="M186 -8q-80 0 -121.5 46.5t-41.5 125.5v239q0 79 41.5 125.5t121.5 46.5q79 0 120.5 -46.5t41.5 -125.5v-239q0 -79 -41.5 -125.5t-120.5 -46.5zM186 83q52 0 52 64v273q0 64 -52 64q-53 0 -53 -64v-273q0 -64 53 -64zM186 622l-98 -29v55l72 53h50l72 -53v-55z" />
    <glyph glyph-name="otilde" unicode="&#xf5;" horiz-adv-x="371" 
d="M186 -8q-80 0 -121.5 46.5t-41.5 125.5v239q0 79 41.5 125.5t121.5 46.5q79 0 120.5 -46.5t41.5 -125.5v-239q0 -79 -41.5 -125.5t-120.5 -46.5zM186 83q52 0 52 64v273q0 64 -52 64q-53 0 -53 -64v-273q0 -64 53 -64zM137 595h-56q4 85 70 85q16 0 39 -8.5t29 -8.5
q14 0 14 15h56q-4 -85 -70 -85q-16 0 -39 8.5t-29 8.5q-14 0 -14 -15z" />
    <glyph glyph-name="odieresis" unicode="&#xf6;" horiz-adv-x="371" 
d="M186 -8q-80 0 -121.5 46.5t-41.5 125.5v239q0 79 41.5 125.5t121.5 46.5q79 0 120.5 -46.5t41.5 -125.5v-239q0 -79 -41.5 -125.5t-120.5 -46.5zM186 83q52 0 52 64v273q0 64 -52 64q-53 0 -53 -64v-273q0 -64 53 -64zM76 592v86h97v-86h-97zM197 592v86h97v-86h-97z" />
    <glyph glyph-name="divide" unicode="&#xf7;" horiz-adv-x="361" 
d="M126 156v109h109v-109h-109zM126 405v110h109v-110h-109zM22 292v88h317v-88h-317z" />
    <glyph glyph-name="oslash" unicode="&#xf8;" horiz-adv-x="371" 
d="M186 -8q-57 0 -95 24l-17 -37h-49l31 69q-33 45 -33 116v239q0 79 41.5 125.5t121.5 46.5q57 0 97 -27l16 35h49l-31 -68q31 -43 31 -112v-239q0 -79 -41.5 -125.5t-120.5 -46.5zM129 423v-215l109 241q-11 38 -52 38q-27 0 -42 -17t-15 -47zM186 80q27 0 41.5 17
t14.5 47v205l-108 -237q14 -32 52 -32z" />
    <glyph glyph-name="ugrave" unicode="&#xf9;" 
d="M133 567v-427q0 -58 48 -58q50 0 50 58v427h110v-567h-110v58h-2q-29 -66 -100 -66q-106 0 -106 143v432h110zM91 616v79l179 -38v-64z" />
    <glyph glyph-name="uacute" unicode="&#xfa;" 
d="M133 567v-427q0 -58 48 -58q47 0 50 50v435h110v-567h-110v58h-2q-29 -66 -100 -66q-106 0 -106 143v432h110zM275 695v-79l-179 -23v64z" />
    <glyph glyph-name="ucircumflex" unicode="&#xfb;" 
d="M133 567v-427q0 -58 48 -58q47 0 50 50v435h110v-567h-110v58h-2q-29 -66 -100 -66q-106 0 -106 143v432h110zM183 622l-98 -29v55l72 53h50l72 -53v-55z" />
    <glyph glyph-name="udieresis" unicode="&#xfc;" 
d="M133 567v-427q0 -58 48 -58q47 0 50 50v435h110v-567h-110v58h-2q-29 -66 -100 -66q-106 0 -106 143v432h110zM194 592v86h97v-86h-97zM73 592v86h97v-86h-97z" />
    <glyph glyph-name="yacute" unicode="&#xfd;" horiz-adv-x="338" 
d="M236 567h100l-114 -559q-11 -54 -41.5 -76t-92.5 -22h-38v88h36q18 0 26.5 7t14.5 28l4 18h-26l-103 516h114l52 -348h1zM262 695v-79l-179 -23v64z" />
    <glyph glyph-name="thorn" unicode="&#xfe;" 
d="M25 -90v768h110v-169h2q29 66 100 66q107 0 107 -143v-297q0 -143 -112 -143q-40 0 -61 17.5t-34 47.5h-2v-147h-110zM234 139v288q0 58 -49 58q-48 0 -50 -51v-303q2 -50 50 -50q49 0 49 58z" />
    <glyph glyph-name="ydieresis" unicode="&#xff;" horiz-adv-x="338" 
d="M236 567h100l-114 -559q-11 -54 -41.5 -76t-92.5 -22h-38v88h36q18 0 26.5 7t14.5 28l4 18h-26l-103 516h114l52 -348h1zM60 592v86h97v-86h-97zM181 592v86h97v-86h-97z" />
    <glyph glyph-name="Amacron" unicode="&#x100;" horiz-adv-x="401" 
d="M115 0h-108l128 678h130l129 -678h-117l-21 124h-121zM102 710v67h196v-67h-196zM195 487l-45 -272h91l-45 272h-1z" />
    <glyph glyph-name="amacron" unicode="&#x101;" horiz-adv-x="359" 
d="M337 0h-110v47h-3q-33 -55 -90 -55q-116 0 -116 143v43q0 64 30.5 94t99.5 60q49 21 64 34.5t15 34.5v26q0 31 -10 44t-34 13q-49 0 -49 -58v-56h-100v48q0 157 153 157q79 0 114.5 -40t35.5 -119v-416zM176 80q51 0 51 60v145q-9 -10 -55 -35q-26 -15 -35 -30t-9 -45
v-35q0 -60 48 -60zM89 600v67h196v-67h-196z" />
    <glyph glyph-name="Abreve" unicode="&#x102;" horiz-adv-x="401" 
d="M115 0h-108l128 678h130l129 -678h-117l-21 124h-121zM231 794h65q-1 -41 -28 -66t-67 -25q-41 0 -68.5 25t-28.5 66h67q3 -23 30 -23q25 0 30 23zM195 487l-45 -272h91l-45 272h-1z" />
    <glyph glyph-name="abreve" unicode="&#x103;" horiz-adv-x="359" 
d="M337 0h-110v47h-3q-33 -55 -90 -55q-116 0 -116 143v43q0 64 30.5 94t99.5 60q49 21 64 34.5t15 34.5v26q0 31 -10 44t-34 13q-49 0 -49 -58v-56h-100v48q0 157 153 157q79 0 114.5 -40t35.5 -119v-416zM176 80q51 0 51 60v145q-9 -10 -55 -35q-26 -15 -35 -30t-9 -45
v-35q0 -60 48 -60zM218 684h65q-1 -41 -28 -66t-67 -25q-41 0 -68.5 25t-28.5 66h67q3 -23 30 -23q25 0 30 23z" />
    <glyph glyph-name="Aogonek" unicode="&#x104;" horiz-adv-x="401" 
d="M115 0h-108l128 678h130l129 -678h-4q-17 -15 -17 -24t13 -9h4v-57h-40q-69 0 -69 41q0 20 18.5 33.5t28.5 15.5h-51l-21 124h-121zM195 487l-45 -272h91l-45 272h-1z" />
    <glyph glyph-name="aogonek" unicode="&#x105;" horiz-adv-x="359" 
d="M337 0q-17 -15 -17 -24t13 -9h4v-57h-40q-69 0 -69 41q0 20 18.5 33.5t28.5 15.5h-48v47h-3q-33 -55 -90 -55q-116 0 -116 143v43q0 64 30.5 94t99.5 60q49 21 64 34.5t15 34.5v26q0 31 -10 44t-34 13q-49 0 -49 -58v-56h-100v48q0 157 153 157q79 0 114.5 -40t35.5 -119
v-416zM176 80q51 0 51 60v145q-9 -10 -55 -35q-26 -15 -35 -30t-9 -45v-35q0 -60 48 -60z" />
    <glyph glyph-name="Cacute" unicode="&#x106;" horiz-adv-x="378" 
d="M195 -8q-86 0 -128 50t-42 133v328q0 84 42 133.5t128 49.5q89 0 125 -44t36 -126v-80h-104v89q0 66 -55 66q-58 0 -58 -70v-364q0 -70 58 -70q55 0 55 66v125h104v-117q0 -169 -161 -169zM286 805v-79l-179 -23v64z" />
    <glyph glyph-name="cacute" unicode="&#x107;" horiz-adv-x="359" 
d="M239 224h103v-67q0 -165 -156 -165q-80 0 -121.5 46.5t-41.5 125.5v239q0 79 41.5 125.5t121.5 46.5q156 0 156 -164v-41h-106v51q0 63 -50 63q-53 0 -53 -64v-273q0 -64 54 -64q52 0 52 64v77zM280 695v-79l-179 -23v64z" />
    <glyph glyph-name="Ccircumflex" unicode="&#x108;" horiz-adv-x="378" 
d="M195 -8q-86 0 -128 50t-42 133v328q0 84 42 133.5t128 49.5q89 0 125 -44t36 -126v-80h-104v89q0 66 -55 66q-58 0 -58 -70v-364q0 -70 58 -70q55 0 55 66v125h104v-117q0 -169 -161 -169zM194 732l-98 -29v55l72 53h50l72 -53v-55z" />
    <glyph glyph-name="ccircumflex" unicode="&#x109;" horiz-adv-x="359" 
d="M239 224h103v-67q0 -165 -156 -165q-80 0 -121.5 46.5t-41.5 125.5v239q0 79 41.5 125.5t121.5 46.5q156 0 156 -164v-41h-106v51q0 63 -50 63q-53 0 -53 -64v-273q0 -64 54 -64q52 0 52 64v77zM188 622l-98 -29v55l72 53h50l72 -53v-55z" />
    <glyph glyph-name="Cdotaccent" unicode="&#x10a;" horiz-adv-x="378" 
d="M195 -8q-86 0 -128 50t-42 133v328q0 84 42 133.5t128 49.5q89 0 125 -44t36 -126v-80h-104v89q0 66 -55 66q-58 0 -58 -70v-364q0 -70 58 -70q55 0 55 66v125h104v-117q0 -169 -161 -169zM139 702v86h110v-86h-110z" />
    <glyph glyph-name="cdotaccent" unicode="&#x10b;" horiz-adv-x="359" 
d="M239 224h103v-67q0 -165 -156 -165q-80 0 -121.5 46.5t-41.5 125.5v239q0 79 41.5 125.5t121.5 46.5q156 0 156 -164v-41h-106v51q0 63 -50 63q-53 0 -53 -64v-273q0 -64 54 -64q52 0 52 64v77zM133 592v86h110v-86h-110z" />
    <glyph glyph-name="Ccaron" unicode="&#x10c;" horiz-adv-x="378" 
d="M195 -8q-86 0 -128 50t-42 133v328q0 84 42 133.5t128 49.5q89 0 125 -44t36 -126v-80h-104v89q0 66 -55 66q-58 0 -58 -70v-364q0 -70 58 -70q55 0 55 66v125h104v-117q0 -169 -161 -169zM192 781l98 29v-55l-72 -53h-50l-72 53v55z" />
    <glyph glyph-name="ccaron" unicode="&#x10d;" horiz-adv-x="359" 
d="M239 224h103v-67q0 -165 -156 -165q-80 0 -121.5 46.5t-41.5 125.5v239q0 79 41.5 125.5t121.5 46.5q156 0 156 -164v-41h-106v51q0 63 -50 63q-53 0 -53 -64v-273q0 -64 54 -64q52 0 52 64v77zM186 671l98 29v-55l-72 -53h-50l-72 53v55z" />
    <glyph glyph-name="Dcaron" unicode="&#x10e;" horiz-adv-x="391" 
d="M139 93h48q65 0 65 69v355q0 68 -65 68h-48v-492zM201 678q165 0 165 -182v-314q0 -182 -165 -182h-176v678h176zM180 781l98 29v-55l-72 -53h-50l-72 53v55z" />
    <glyph glyph-name="dcaron" unicode="&#x10f;" 
d="M342 678v-678h-110v58h-2q-29 -66 -95 -66q-112 0 -112 143v297q0 143 108 143q71 0 99 -66h2v169h110zM133 427v-288q0 -58 49 -58q50 0 50 58v295q-3 51 -50 51q-49 0 -49 -58zM444 678v-9l-25 -84h-53v93h78z" />
    <glyph glyph-name="Dcroat" unicode="&#x110;" horiz-adv-x="391" 
d="M-4 299v92h29v287h176q165 0 165 -182v-314q0 -182 -165 -182h-176v299h-29zM139 93h48q65 0 65 69v355q0 68 -65 68h-48v-194h73v-92h-73v-206z" />
    <glyph glyph-name="dcroat" unicode="&#x111;" 
d="M342 678v-40h28v-44h-28v-594h-110v58h-2q-29 -66 -95 -66q-112 0 -112 143v297q0 143 108 143q71 0 99 -66h2v85h-81v44h81v40h110zM133 427v-288q0 -58 49 -58q50 0 50 58v288q0 58 -50 58q-49 0 -49 -58z" />
    <glyph glyph-name="Emacron" unicode="&#x112;" horiz-adv-x="318" 
d="M25 0v678h272v-93h-158v-194h113v-92h-113v-206h158v-93h-272zM71 710v67h196v-67h-196z" />
    <glyph glyph-name="emacron" unicode="&#x113;" 
d="M239 224h104v-67q0 -165 -157 -165q-80 0 -121.5 46.5t-41.5 125.5v239q0 79 41.5 125.5t121.5 46.5q157 0 157 -165v-137h-210v-126q0 -64 55 -64q51 0 51 64v77zM91 600v67h196v-67h-196zM133 420v-67h104v67q0 64 -51 64q-53 0 -53 -64z" />
    <glyph glyph-name="Ebreve" unicode="&#x114;" horiz-adv-x="318" 
d="M25 0v678h272v-93h-158v-194h113v-92h-113v-206h158v-93h-272zM200 794h65q-1 -41 -28 -66t-67 -25q-41 0 -68.5 25t-28.5 66h67q3 -23 30 -23q25 0 30 23z" />
    <glyph glyph-name="ebreve" unicode="&#x115;" 
d="M239 224h104v-67q0 -165 -157 -165q-80 0 -121.5 46.5t-41.5 125.5v239q0 79 41.5 125.5t121.5 46.5q157 0 157 -165v-137h-210v-126q0 -64 55 -64q51 0 51 64v77zM220 684h65q-1 -41 -28 -66t-67 -25q-41 0 -68.5 25t-28.5 66h67q3 -23 30 -23q25 0 30 23zM133 420v-67
h104v67q0 64 -51 64q-53 0 -53 -64z" />
    <glyph glyph-name="Edotaccent" unicode="&#x116;" horiz-adv-x="318" 
d="M25 0v678h272v-93h-158v-194h113v-92h-113v-206h158v-93h-272zM115 702v86h110v-86h-110z" />
    <glyph glyph-name="edotaccent" unicode="&#x117;" 
d="M239 224h104v-67q0 -165 -157 -165q-80 0 -121.5 46.5t-41.5 125.5v239q0 79 41.5 125.5t121.5 46.5q157 0 157 -165v-137h-210v-126q0 -64 55 -64q51 0 51 64v77zM133 420v-67h104v67q0 64 -51 64q-53 0 -53 -64zM135 592v86h110v-86h-110z" />
    <glyph glyph-name="Eogonek" unicode="&#x118;" horiz-adv-x="318" 
d="M25 0v678h272v-93h-158v-194h113v-92h-113v-206h158v-93h-23q-17 -15 -17 -24t13 -9h4v-57h-40q-69 0 -69 41q0 20 18.5 33.5t28.5 15.5h-187z" />
    <glyph glyph-name="eogonek" unicode="&#x119;" 
d="M239 224h104v-67q0 -85 -45 -130q-36 -36 -36 -49q0 -11 14 -11h4v-57h-40q-69 0 -69 38q0 30 45 46q-18 -2 -30 -2q-80 0 -121.5 46.5t-41.5 125.5v239q0 79 41.5 125.5t121.5 46.5q157 0 157 -165v-137h-210v-126q0 -64 55 -64q51 0 51 64v77zM133 420v-67h104v67
q0 64 -51 64q-53 0 -53 -64z" />
    <glyph glyph-name="Ecaron" unicode="&#x11a;" horiz-adv-x="318" 
d="M25 0v678h272v-93h-158v-194h113v-92h-113v-206h158v-93h-272zM168 781l98 29v-55l-72 -53h-50l-72 53v55z" />
    <glyph glyph-name="ecaron" unicode="&#x11b;" 
d="M239 224h104v-67q0 -165 -157 -165q-80 0 -121.5 46.5t-41.5 125.5v239q0 79 41.5 125.5t121.5 46.5q157 0 157 -165v-137h-210v-126q0 -64 55 -64q51 0 51 64v77zM188 671l98 29v-55l-72 -53h-50l-72 53v55zM133 420v-67h104v67q0 64 -51 64q-53 0 -53 -64z" />
    <glyph glyph-name="Gcircumflex" unicode="&#x11c;" horiz-adv-x="384" 
d="M197 272v90h162v-362h-82v74q-24 -82 -109 -82q-71 0 -107 50t-36 133v328q0 84 42.5 133.5t128.5 49.5q89 0 126 -44.5t37 -125.5v-60h-104v69q0 66 -57 66q-59 0 -59 -70v-364q0 -70 56 -70t56 65v120h-54zM196 732l-98 -29v55l72 53h50l72 -53v-55z" />
    <glyph glyph-name="gcircumflex" unicode="&#x11d;" 
d="M232 567h109v-495q0 -170 -161 -170q-81 0 -119.5 37.5t-38.5 99.5v21h101v-14q0 -53 55 -53q54 0 54 62v99h-2q-28 -65 -95 -65q-112 0 -112 142v201q0 143 107 143q72 0 100 -66h2v58zM133 427v-192q0 -28 10.5 -42.5t37.5 -14.5q51 0 51 57v192q0 58 -50 58
q-49 0 -49 -58zM189 622l-98 -29v55l72 53h50l72 -53v-55z" />
    <glyph glyph-name="Gbreve" unicode="&#x11e;" horiz-adv-x="384" 
d="M197 272v90h162v-362h-82v74q-24 -82 -109 -82q-71 0 -107 50t-36 133v328q0 84 42.5 133.5t128.5 49.5q89 0 126 -44.5t37 -125.5v-60h-104v69q0 66 -57 66q-59 0 -59 -70v-364q0 -70 56 -70t56 65v120h-54zM226 794h65q-1 -41 -28 -66t-67 -25q-41 0 -68.5 25t-28.5 66
h67q3 -23 30 -23q25 0 30 23z" />
    <glyph glyph-name="gbreve" unicode="&#x11f;" 
d="M232 567h109v-495q0 -170 -161 -170q-81 0 -119.5 37.5t-38.5 99.5v21h101v-14q0 -53 55 -53q54 0 54 62v99h-2q-28 -65 -95 -65q-112 0 -112 142v201q0 143 107 143q72 0 100 -66h2v58zM133 427v-192q0 -28 10.5 -42.5t37.5 -14.5q48 0 51 49v200q0 58 -50 58
q-49 0 -49 -58zM219 684h65q-1 -41 -28 -66t-67 -25q-41 0 -68.5 25t-28.5 66h67q3 -23 30 -23q25 0 30 23z" />
    <glyph glyph-name="Gdotaccent" unicode="&#x120;" horiz-adv-x="384" 
d="M197 272v90h162v-362h-82v74q-24 -82 -109 -82q-71 0 -107 50t-36 133v328q0 84 42.5 133.5t128.5 49.5q89 0 126 -44.5t37 -125.5v-60h-104v69q0 66 -57 66q-59 0 -59 -70v-364q0 -70 56 -70t56 65v120h-54zM141 702v86h110v-86h-110z" />
    <glyph glyph-name="gdotaccent" unicode="&#x121;" 
d="M232 567h109v-495q0 -170 -161 -170q-81 0 -119.5 37.5t-38.5 99.5v21h101v-14q0 -53 55 -53q54 0 54 62v99h-2q-28 -65 -95 -65q-112 0 -112 142v201q0 143 107 143q72 0 100 -66h2v58zM133 427v-192q0 -28 10.5 -42.5t37.5 -14.5q48 0 51 49v207q-3 51 -50 51
q-49 0 -49 -58zM134 592v86h110v-86h-110z" />
    <glyph glyph-name="Gcommaaccent" unicode="&#x122;" horiz-adv-x="384" 
d="M197 272v90h162v-362h-82v74q-24 -82 -109 -82q-71 0 -107 50t-36 133v328q0 84 42.5 133.5t128.5 49.5q89 0 126 -44.5t37 -125.5v-60h-104v69q0 66 -57 66q-59 0 -59 -70v-364q0 -70 56 -70t56 65v120h-54zM246 -21v-9l-31 -60h-68l6 69h93z" />
    <glyph glyph-name="gcommaaccent" unicode="&#x123;" 
d="M232 567h109v-495q0 -170 -161 -170q-81 0 -119.5 37.5t-38.5 99.5v21h101v-14q0 -53 55 -53q54 0 54 62v99h-2q-28 -65 -95 -65q-112 0 -112 142v201q0 143 107 143q72 0 100 -66h2v58zM133 427v-192q0 -28 10.5 -42.5t37.5 -14.5q51 0 51 57v199q-3 51 -50 51
q-49 0 -49 -58zM139 592v9l31 60h68l-6 -69h-93z" />
    <glyph glyph-name="Hcircumflex" unicode="&#x124;" horiz-adv-x="389" 
d="M249 0v299h-110v-299h-114v678h114v-287h110v287h115v-678h-115zM195 732l-98 -29v55l72 53h50l72 -53v-55z" />
    <glyph glyph-name="hcircumflex" unicode="&#x125;" 
d="M233 0v427q0 58 -48 58t-50 -51v-434h-110v678h110v-169h2q28 66 99 66q107 0 107 -143v-432h-110zM185 732l-98 -29v55l72 53h50l72 -53v-55z" />
    <glyph glyph-name="Hbar" unicode="&#x126;" horiz-adv-x="389" 
d="M-5 493v64h30v121h114v-121h110v121h115v-121h30v-64h-30v-493h-115v299h-110v-299h-114v493h-30zM139 493v-102h110v102h-110z" />
    <glyph glyph-name="hbar" unicode="&#x127;" 
d="M25 0v594h-28v44h28v40h110v-40h81v-44h-81v-85h2q28 66 99 66q107 0 107 -143v-432h-110v427q0 58 -48 58q-50 0 -50 -58v-427h-110z" />
    <glyph glyph-name="Itilde" unicode="&#x128;" horiz-adv-x="165" 
d="M25 0v678h114v-678h-114zM35 706h-56q4 85 70 85q16 0 39 -8.5t29 -8.5q14 0 14 15h56q-4 -85 -70 -85q-16 0 -39 8.5t-29 8.5q-14 0 -14 -15z" />
    <glyph glyph-name="itilde" unicode="&#x129;" horiz-adv-x="160" 
d="M37 595h-56q4 85 66 85q17 0 37 -8.5t25 -8.5q14 0 14 15h56q-4 -85 -64 -85q-19 0 -39 8.5t-25 8.5q-14 0 -14 -15zM25 0v567h110v-567h-110z" />
    <glyph glyph-name="Imacron" unicode="&#x12a;" horiz-adv-x="165" 
d="M25 0v678h114v-678h-114zM4 710v67h156v-67h-156z" />
    <glyph glyph-name="imacron" unicode="&#x12b;" horiz-adv-x="160" 
d="M2 600v67h156v-67h-156zM25 0v567h110v-567h-110z" />
    <glyph glyph-name="Ibreve" unicode="&#x12c;" horiz-adv-x="165" 
d="M25 0v678h114v-678h-114zM114 795h65q-1 -41 -28 -66t-67 -25q-41 0 -68.5 25t-28.5 66h67q3 -23 30 -23q25 0 30 23z" />
    <glyph glyph-name="ibreve" unicode="&#x12d;" horiz-adv-x="160" 
d="M25 0v567h110v-567h-110zM103 684h63q0 -42 -23.5 -66.5t-61.5 -24.5q-39 0 -63 24.5t-24 66.5h65q2 -23 22 -23q19 0 22 23z" />
    <glyph glyph-name="Iogonek" unicode="&#x12e;" horiz-adv-x="165" 
d="M25 0v678h114v-678q-17 -15 -17 -24t13 -9h4v-57h-40q-69 0 -69 41q0 20 18.5 33.5t28.5 15.5h-52z" />
    <glyph glyph-name="iogonek" unicode="&#x12f;" horiz-adv-x="160" 
d="M25 0v567h110v-567q-17 -15 -17 -24t13 -9h4v-57h-40q-69 0 -69 41q0 20 18.5 33.5t28.5 15.5h-48zM25 592v86h110v-86h-110z" />
    <glyph glyph-name="Idotaccent" unicode="&#x130;" horiz-adv-x="165" 
d="M25 0v678h114v-678h-114zM28 702v86h110v-86h-110z" />
    <glyph glyph-name="dotlessi" unicode="&#x131;" horiz-adv-x="160" 
d="M25 0v567h110v-567h-110z" />
    <glyph glyph-name="IJ" unicode="&#x132;" horiz-adv-x="517" 
d="M25 0v678h114v-678h-114zM379 678h114v-524q0 -162 -157 -162q-83 0 -116.5 40t-33.5 111v135h108v-137q0 -54 42 -54q43 0 43 55v536z" />
    <glyph glyph-name="ij" unicode="&#x133;" horiz-adv-x="320" 
d="M25 0v567h110v-567h-110zM25 592v86h110v-86h-110zM185 567h110v-560q0 -54 -28 -75.5t-98 -21.5h-14v75h7q23 0 23 24v558zM185 592v86h110v-86h-110z" />
    <glyph glyph-name="Jcircumflex" unicode="&#x134;" horiz-adv-x="352" 
d="M214 678h114v-524q0 -162 -157 -162q-83 0 -116.5 40t-33.5 111v135h108v-137q0 -54 42 -54q43 0 43 55v536zM273 732l-98 -29v55l72 53h50l72 -53v-55z" />
    <glyph glyph-name="jcircumflex" unicode="&#x135;" horiz-adv-x="160" 
d="M81 622l-83 -29v55l57 53h50l57 -53v-55zM25 567h110v-560q0 -54 -28 -75.5t-98 -21.5h-14v75h7q23 0 23 24v558z" />
    <glyph glyph-name="Kcommaaccent" unicode="&#x136;" horiz-adv-x="381" 
d="M258 0l-119 330v-330h-114v678h114v-298l124 298h112l-132 -305l135 -373h-120zM239 -21v-9l-31 -60h-68l6 69h93z" />
    <glyph glyph-name="kcommaaccent" unicode="&#x137;" horiz-adv-x="350" 
d="M349 0h-116l-98 273v-273h-110v678h110v-355l101 244h108l-110 -252zM226 -21v-9l-31 -60h-68l6 69h93z" />
    <glyph glyph-name="Lacute" unicode="&#x139;" horiz-adv-x="287" 
d="M25 0v678h114v-585h136v-93h-250zM188 805v-79l-179 -23v64z" />
    <glyph glyph-name="lacute" unicode="&#x13a;" horiz-adv-x="160" 
d="M25 0v678h110v-678h-110zM164 805v-79l-149 -23v64z" />
    <glyph glyph-name="Lcommaaccent" unicode="&#x13b;" horiz-adv-x="287" 
d="M25 0v678h114v-585h136v-93h-250zM195 -21v-9l-31 -60h-68l6 69h93z" />
    <glyph glyph-name="lcommaaccent" unicode="&#x13c;" horiz-adv-x="160" 
d="M25 0v678h110v-678h-110zM131 -21v-9l-31 -60h-68l6 69h93z" />
    <glyph glyph-name="Lcaron" unicode="&#x13d;" horiz-adv-x="287" 
d="M25 0v678h114v-585h136v-93h-250zM253 678v-9l-29 -133h-49v142h78z" />
    <glyph glyph-name="lcaron" unicode="&#x13e;" horiz-adv-x="160" 
d="M25 0v678h110v-678h-110zM237 678v-9l-25 -84h-53v93h78z" />
    <glyph glyph-name="Ldot" unicode="&#x13f;" horiz-adv-x="287" 
d="M25 0v678h114v-585h136v-93h-250zM184 290v83h83v-83h-83z" />
    <glyph glyph-name="ldot" unicode="&#x140;" horiz-adv-x="243" 
d="M25 0v678h110v-678h-110zM160 300v83h83v-83h-83z" />
    <glyph glyph-name="Lslash" unicode="&#x141;" horiz-adv-x="302" 
d="M11 229v82l29 13v354h114v-301l93 44v-82l-93 -44v-202h136v-93h-250v242z" />
    <glyph glyph-name="lslash" unicode="&#x142;" horiz-adv-x="178" 
d="M7 269v92l27 23v294h110v-199l30 26v-92l-30 -26v-387h-110v292z" />
    <glyph glyph-name="Nacute" unicode="&#x143;" horiz-adv-x="380" 
d="M255 0l-134 426v-426h-96v678h112l123 -389v389h95v-678h-100zM294 805v-79l-179 -23v64z" />
    <glyph glyph-name="nacute" unicode="&#x144;" 
d="M233 0v427q0 58 -48 58q-50 0 -50 -58v-427h-110v567h110v-58h2q28 66 99 66q107 0 107 -143v-432h-110zM280 695v-79l-179 -23v64z" />
    <glyph glyph-name="Ncommaaccent" unicode="&#x145;" horiz-adv-x="380" 
d="M255 0l-134 426v-426h-96v678h112l123 -389v389h95v-678h-100zM231 -21v-9l-31 -60h-68l6 69h93z" />
    <glyph glyph-name="ncommaaccent" unicode="&#x146;" 
d="M233 0v427q0 58 -48 58t-50 -51v-434h-110v567h110v-58h2q28 66 99 66q107 0 107 -143v-432h-110zM227 -21v-9l-31 -60h-68l6 69h93z" />
    <glyph glyph-name="Ncaron" unicode="&#x147;" horiz-adv-x="380" 
d="M255 0l-134 426v-426h-96v678h112l123 -389v389h95v-678h-100zM200 781l98 29v-55l-72 -53h-50l-72 53v55z" />
    <glyph glyph-name="ncaron" unicode="&#x148;" 
d="M233 0v427q0 58 -48 58t-50 -51v-434h-110v567h110v-58h2q28 66 99 66q107 0 107 -143v-432h-110zM186 671l98 29v-55l-72 -53h-50l-72 53v55z" />
    <glyph glyph-name="Eng" unicode="&#x14a;" horiz-adv-x="381" 
d="M222 -15q23 0 23 24v23l-124 394v-426h-96v678h112l123 -389v389h95v-671q0 -54 -28 -75.5t-98 -21.5h-34v75h27z" />
    <glyph glyph-name="eng" unicode="&#x14b;" 
d="M233 427q0 58 -48 58q-50 0 -50 -58v-427h-110v567h110v-58h2q28 66 99 66q107 0 107 -143v-425q0 -54 -28 -75.5t-98 -21.5h-14v75h7q23 0 23 24v418z" />
    <glyph glyph-name="Omacron" unicode="&#x14c;" horiz-adv-x="395" 
d="M197 87q59 0 59 70v364q0 70 -59 70q-58 0 -58 -70v-364q0 -70 58 -70zM197 -8q-86 0 -129 50t-43 133v328q0 84 43 133.5t129 49.5q87 0 130 -49.5t43 -133.5v-328q0 -83 -43 -133t-130 -50zM99 710v67h196v-67h-196z" />
    <glyph glyph-name="omacron" unicode="&#x14d;" horiz-adv-x="371" 
d="M186 -8q-80 0 -121.5 46.5t-41.5 125.5v239q0 79 41.5 125.5t121.5 46.5q79 0 120.5 -46.5t41.5 -125.5v-239q0 -79 -41.5 -125.5t-120.5 -46.5zM186 83q52 0 52 64v273q0 64 -52 64q-53 0 -53 -64v-273q0 -64 53 -64zM87 600v67h196v-67h-196z" />
    <glyph glyph-name="Obreve" unicode="&#x14e;" horiz-adv-x="395" 
d="M197 87q59 0 59 70v364q0 70 -59 70q-58 0 -58 -70v-364q0 -70 58 -70zM197 -8q-86 0 -129 50t-43 133v328q0 84 43 133.5t129 49.5q87 0 130 -49.5t43 -133.5v-328q0 -83 -43 -133t-130 -50zM229 795h65q-1 -41 -28 -66t-67 -25q-41 0 -68.5 25t-28.5 66h67
q3 -23 30 -23q25 0 30 23z" />
    <glyph glyph-name="obreve" unicode="&#x14f;" horiz-adv-x="371" 
d="M186 -8q-80 0 -121.5 46.5t-41.5 125.5v239q0 79 41.5 125.5t121.5 46.5q79 0 120.5 -46.5t41.5 -125.5v-239q0 -79 -41.5 -125.5t-120.5 -46.5zM186 83q52 0 52 64v273q0 64 -52 64q-53 0 -53 -64v-273q0 -64 53 -64zM217 684h65q-1 -41 -28 -66t-67 -25q-41 0 -68.5 25
t-28.5 66h67q3 -23 30 -23q25 0 30 23z" />
    <glyph glyph-name="Ohungarumlaut" unicode="&#x150;" horiz-adv-x="395" 
d="M197 87q59 0 59 70v364q0 70 -59 70q-58 0 -58 -70v-364q0 -70 58 -70zM197 -8q-86 0 -129 50t-43 133v328q0 84 43 133.5t129 49.5q87 0 130 -49.5t43 -133.5v-328q0 -83 -43 -133t-130 -50zM128 812h90l-46 -107h-63zM237 812h90l-46 -107h-63z" />
    <glyph glyph-name="ohungarumlaut" unicode="&#x151;" horiz-adv-x="371" 
d="M186 -8q-80 0 -121.5 46.5t-41.5 125.5v239q0 79 41.5 125.5t121.5 46.5q79 0 120.5 -46.5t41.5 -125.5v-239q0 -79 -41.5 -125.5t-120.5 -46.5zM186 83q52 0 52 64v273q0 64 -52 64q-53 0 -53 -64v-273q0 -64 53 -64zM116 702h90l-46 -107h-63zM225 702h90l-46 -107h-63
z" />
    <glyph glyph-name="OE" unicode="&#x152;" horiz-adv-x="549" 
d="M278 0v43q-29 -51 -99 -51q-74 0 -114 50.5t-40 132.5v328q0 83 41 133t119 50q66 0 93 -51v43h250v-93h-158v-194h113v-92h-113v-206h158v-93h-250zM197 87q59 0 59 70v364q0 70 -59 70q-58 0 -58 -70v-364q0 -70 58 -70z" />
    <glyph glyph-name="oe" unicode="&#x153;" horiz-adv-x="581" 
d="M182 -8q-78 0 -118.5 46.5t-40.5 125.5v239q0 79 40.5 125.5t118.5 46.5q76 0 114 -55q37 55 109 55q153 0 153 -165v-137h-210v-126q0 -64 55 -64q51 0 51 64v77h104v-67q0 -165 -153 -165q-72 0 -109 55q-38 -55 -114 -55zM186 83q52 0 52 64v273q0 64 -52 64
q-53 0 -53 -64v-273q0 -64 53 -64zM348 420v-67h104v67q0 64 -51 64q-53 0 -53 -64z" />
    <glyph glyph-name="Racute" unicode="&#x154;" horiz-adv-x="370" 
d="M246 0l-107 311v-311h-114v678h166q83 0 120 -39t37 -113v-87q0 -110 -91 -131l109 -308h-120zM177 585h-38v-211h38q56 0 56 56v100q0 55 -56 55zM274 805v-79l-179 -23v64z" />
    <glyph glyph-name="racute" unicode="&#x155;" horiz-adv-x="236" 
d="M223 571v-129h-31q-56 0 -57 -52v-390h-110v567h110v-58h2q21 60 86 62zM229 695v-79l-179 -23v64z" />
    <glyph glyph-name="Rcommaaccent" unicode="&#x156;" horiz-adv-x="370" 
d="M246 0l-107 311v-311h-114v678h166q83 0 120 -39t37 -113v-87q0 -110 -91 -131l109 -308h-120zM177 585h-38v-211h38q56 0 56 56v100q0 55 -56 55zM237 -21v-9l-31 -60h-68l6 69h93z" />
    <glyph glyph-name="rcommaaccent" unicode="&#x157;" horiz-adv-x="236" 
d="M223 571v-129h-31q-57 0 -57 -57v-385h-110v567h110v-58h2q21 60 86 62zM122 -21v-9l-31 -60h-68l6 69h93z" />
    <glyph glyph-name="Rcaron" unicode="&#x158;" horiz-adv-x="370" 
d="M246 0l-107 311v-311h-114v678h166q83 0 120 -39t37 -113v-87q0 -110 -91 -131l109 -308h-120zM177 585h-38v-211h38q56 0 56 56v100q0 55 -56 55zM180 781l98 29v-55l-72 -53h-50l-72 53v55z" />
    <glyph glyph-name="rcaron" unicode="&#x159;" horiz-adv-x="236" 
d="M223 571v-129h-31q-57 0 -57 -57v-385h-110v567h110v-58h2q21 60 86 62zM138 671l98 29v-55l-72 -53h-50l-72 53v55z" />
    <glyph glyph-name="Sacute" unicode="&#x15a;" 
d="M180 -8q-83 0 -122 41.5t-39 112.5v91h106v-93q0 -60 56 -60q52 0 52 60v26q0 28 -11.5 49t-39.5 47l-67 67q-53 52 -74 89t-21 92v23q0 67 40 108t120 41q83 0 121 -39t38 -115v-55h-104v59q0 58 -54 58t-54 -56v-14q0 -26 12.5 -45t41.5 -47l73 -72q51 -52 71.5 -87.5
t20.5 -88.5v-33q0 -73 -41 -116t-125 -43zM275 805v-79l-179 -23v64z" />
    <glyph glyph-name="sacute" unicode="&#x15b;" horiz-adv-x="343" 
d="M324 161v-19q0 -71 -38 -110.5t-115 -39.5q-75 0 -113 40.5t-38 114.5v59h99v-64q0 -59 51 -59q50 0 50 51v16q0 21 -13.5 38t-51.5 47l-42 33q-48 37 -68.5 70.5t-20.5 83.5v14q0 64 37.5 101.5t112.5 37.5q78 0 112 -38.5t34 -112.5v-31h-98v36q0 55 -48 55
q-47 0 -47 -45v-9q0 -20 11.5 -36t41.5 -36l40 -32q63 -50 83.5 -80t20.5 -85zM265 695v-79l-179 -23v64z" />
    <glyph glyph-name="Scircumflex" unicode="&#x15c;" 
d="M180 -8q-83 0 -122 41.5t-39 112.5v91h106v-93q0 -60 56 -60q52 0 52 60v26q0 28 -11.5 49t-39.5 47l-67 67q-53 52 -74 89t-21 92v23q0 67 40 108t120 41q83 0 121 -39t38 -115v-55h-104v59q0 58 -54 58t-54 -56v-14q0 -26 12.5 -45t41.5 -47l73 -72q51 -52 71.5 -87.5
t20.5 -88.5v-33q0 -73 -41 -116t-125 -43zM183 732l-98 -29v55l72 53h50l72 -53v-55z" />
    <glyph glyph-name="scircumflex" unicode="&#x15d;" horiz-adv-x="343" 
d="M324 161v-19q0 -71 -38 -110.5t-115 -39.5q-75 0 -113 40.5t-38 114.5v59h99v-64q0 -59 51 -59q50 0 50 51v16q0 21 -13.5 38t-51.5 47l-42 33q-48 37 -68.5 70.5t-20.5 83.5v14q0 64 37.5 101.5t112.5 37.5q78 0 112 -38.5t34 -112.5v-31h-98v36q0 55 -48 55
q-47 0 -47 -45v-9q0 -20 11.5 -36t41.5 -36l40 -32q63 -50 83.5 -80t20.5 -85zM173 622l-98 -29v55l72 53h50l72 -53v-55z" />
    <glyph glyph-name="Scedilla" unicode="&#x15e;" 
d="M135 -101v32q37 1 37 16q0 11 -16 11h-5v36q-132 13 -132 152v91h106v-93q0 -60 56 -60q52 0 52 60v26q0 28 -11.5 49t-39.5 47l-67 67q-53 52 -74 89t-21 92v23q0 67 40 108t120 41q83 0 121 -39t38 -115v-55h-104v59q0 58 -54 58t-54 -56v-14q0 -26 12.5 -45t41.5 -47
l73 -72q51 -52 71.5 -87.5t20.5 -88.5v-33q0 -70 -37.5 -112t-114.5 -46v-10q42 -6 42 -36q0 -48 -101 -48z" />
    <glyph glyph-name="scedilla" unicode="&#x15f;" horiz-adv-x="343" 
d="M125 -101v32q37 1 37 16q0 11 -16 11h-5v36q-121 15 -121 153v59h99v-64q0 -59 51 -59q50 0 50 51v16q0 21 -13.5 38t-51.5 47l-42 33q-48 37 -68.5 70.5t-20.5 83.5v14q0 64 37.5 101.5t112.5 37.5q78 0 112 -38.5t34 -112.5v-31h-98v36q0 55 -48 55q-47 0 -47 -45v-9
q0 -20 11.5 -36t41.5 -36l40 -32q63 -50 83.5 -80t20.5 -85v-19q0 -67 -35 -106.5t-105 -42.5v-10q42 -6 42 -36q0 -48 -101 -48z" />
    <glyph glyph-name="Scaron" unicode="&#x160;" 
d="M180 -8q-83 0 -122 41.5t-39 112.5v91h106v-93q0 -60 56 -60q52 0 52 60v26q0 28 -11.5 49t-39.5 47l-67 67q-53 52 -74 89t-21 92v23q0 67 40 108t120 41q83 0 121 -39t38 -115v-55h-104v59q0 58 -54 58t-54 -56v-14q0 -26 12.5 -45t41.5 -47l73 -72q51 -52 71.5 -87.5
t20.5 -88.5v-33q0 -73 -41 -116t-125 -43zM181 781l98 29v-55l-72 -53h-50l-72 53v55z" />
    <glyph glyph-name="scaron" unicode="&#x161;" horiz-adv-x="343" 
d="M324 161v-19q0 -71 -38 -110.5t-115 -39.5q-75 0 -113 40.5t-38 114.5v59h99v-64q0 -59 51 -59q50 0 50 51v16q0 21 -13.5 38t-51.5 47l-42 33q-48 37 -68.5 70.5t-20.5 83.5v14q0 64 37.5 101.5t112.5 37.5q78 0 112 -38.5t34 -112.5v-31h-98v36q0 55 -48 55
q-47 0 -47 -45v-9q0 -20 11.5 -36t41.5 -36l40 -32q63 -50 83.5 -80t20.5 -85zM171 671l98 29v-55l-72 -53h-50l-72 53v55z" />
    <glyph glyph-name="Tcommaaccent" unicode="&#x162;" horiz-adv-x="328" 
d="M12 585v93h303v-93h-94v-585h-115v585h-94zM208 -21v-9l-31 -60h-68l6 69h93z" />
    <glyph glyph-name="tcommaaccent" unicode="&#x163;" horiz-adv-x="246" 
d="M12 483v84h41v111h109v-111h69v-84h-69v-363q0 -17 7.5 -24t26.5 -7h35v-89h-47q-73 0 -102 28.5t-29 97.5v357h-41zM185 -21v-9l-31 -60h-68l6 69h93z" />
    <glyph glyph-name="Tcaron" unicode="&#x164;" horiz-adv-x="328" 
d="M12 585v93h303v-93h-94v-585h-115v585h-94zM162 781l98 29v-55l-72 -53h-50l-72 53v55z" />
    <glyph glyph-name="tcaron" unicode="&#x165;" horiz-adv-x="246" 
d="M12 483v84h41v111h109v-111h69v-84h-69v-363q0 -17 7.5 -24t26.5 -7h35v-89h-47q-73 0 -102 28.5t-29 97.5v357h-41zM261 678v-9l-25 -84h-53v93h78z" />
    <glyph glyph-name="Tbar" unicode="&#x166;" horiz-adv-x="328" 
d="M12 585v93h303v-93h-94v-141h67v-64h-67v-380h-115v380h-66v64h66v141h-94z" />
    <glyph glyph-name="tbar" unicode="&#x167;" horiz-adv-x="246" 
d="M53 678h109v-111h69v-84h-69v-61h69v-44h-69v-258q0 -17 7.5 -24t26.5 -7h35v-89h-47q-73 0 -102 28.5t-29 97.5v252h-41v44h41v61h-41v84h41v111z" />
    <glyph glyph-name="Utilde" unicode="&#x168;" horiz-adv-x="381" 
d="M251 678h105v-513q0 -173 -161 -173q-170 0 -170 173v513h114v-524q0 -67 56 -67t56 67v524zM143 706h-56q4 85 70 85q16 0 39 -8.5t29 -8.5q14 0 14 15h56q-4 -85 -70 -85q-16 0 -39 8.5t-29 8.5q-14 0 -14 -15z" />
    <glyph glyph-name="utilde" unicode="&#x169;" 
d="M133 567v-427q0 -58 48 -58q50 0 50 58v427h110v-567h-110v58h-2q-29 -66 -100 -66q-106 0 -106 143v432h110zM135 595h-56q4 85 70 85q16 0 39 -8.5t29 -8.5q14 0 14 15h56q-4 -85 -70 -85q-16 0 -39 8.5t-29 8.5q-14 0 -14 -15z" />
    <glyph glyph-name="Umacron" unicode="&#x16a;" horiz-adv-x="381" 
d="M251 678h105v-513q0 -173 -161 -173q-170 0 -170 173v513h114v-524q0 -67 56 -67t56 67v524zM95 710v67h196v-67h-196z" />
    <glyph glyph-name="umacron" unicode="&#x16b;" 
d="M133 567v-427q0 -58 48 -58q50 0 50 58v427h110v-567h-110v58h-2q-29 -66 -100 -66q-106 0 -106 143v432h110zM84 600v67h196v-67h-196z" />
    <glyph glyph-name="Ubreve" unicode="&#x16c;" horiz-adv-x="381" 
d="M251 678h105v-513q0 -173 -161 -173q-170 0 -170 173v513h114v-524q0 -67 56 -67t56 67v524zM224 794h65q-1 -41 -28 -66t-67 -25q-41 0 -68.5 25t-28.5 66h67q3 -23 30 -23q25 0 30 23z" />
    <glyph glyph-name="ubreve" unicode="&#x16d;" 
d="M133 567v-427q0 -58 48 -58q50 0 50 58v427h110v-567h-110v58h-2q-29 -66 -100 -66q-106 0 -106 143v432h110zM213 684h65q-1 -41 -28 -66t-67 -25q-41 0 -68.5 25t-28.5 66h67q3 -23 30 -23q25 0 30 23z" />
    <glyph glyph-name="Uring" unicode="&#x16e;" horiz-adv-x="381" 
d="M251 678h105v-513q0 -173 -161 -173q-170 0 -170 173v513h114v-524q0 -67 56 -67t56 67v524zM116 756q0 31 22 53t55 22t54.5 -22t21.5 -53t-21.5 -53t-54.5 -22t-55 22t-22 53zM162 756q0 -14 8.5 -23.5t22.5 -9.5t22.5 9.5t8.5 23.5t-8.5 23.5t-22.5 9.5t-22.5 -9.5
t-8.5 -23.5z" />
    <glyph glyph-name="uring" unicode="&#x16f;" 
d="M133 567v-427q0 -58 48 -58q50 0 50 58v427h110v-567h-110v58h-2q-29 -66 -100 -66q-106 0 -106 143v432h110zM106 666q0 31 22 53t55 22t54.5 -22t21.5 -53t-21.5 -53t-54.5 -22t-55 22t-22 53zM152 666q0 -14 8.5 -23.5t22.5 -9.5t22.5 9.5t8.5 23.5t-8.5 23.5
t-22.5 9.5t-22.5 -9.5t-8.5 -23.5z" />
    <glyph glyph-name="Uhungarumlaut" unicode="&#x170;" horiz-adv-x="381" 
d="M251 678h105v-513q0 -173 -161 -173q-170 0 -170 173v513h114v-524q0 -67 56 -67t56 67v524zM124 812h90l-46 -107h-63zM233 812h90l-46 -107h-63z" />
    <glyph glyph-name="uhungarumlaut" unicode="&#x171;" 
d="M133 567v-427q0 -58 48 -58q50 0 50 58v427h110v-567h-110v58h-2q-29 -66 -100 -66q-106 0 -106 143v432h110zM222 702h90l-46 -107h-63zM113 702h90l-46 -107h-63z" />
    <glyph glyph-name="Uogonek" unicode="&#x172;" horiz-adv-x="381" 
d="M251 678h105v-513q0 -115 -73 -154q-6 -3 -14.5 -7t-13.5 -6.5t-10 -6t-7.5 -7t-2.5 -8.5q0 -9 13 -9h4v-57h-40q-69 0 -69 41q0 26 35 42q-78 4 -115.5 49t-37.5 123v513h114v-524q0 -67 56 -67t56 67v524z" />
    <glyph glyph-name="uogonek" unicode="&#x173;" 
d="M133 567v-427q0 -58 48 -58q47 0 50 50v435h110v-567q-17 -15 -17 -24t13 -9h4v-57h-40q-69 0 -69 41q0 20 18.5 33.5t28.5 15.5h-48v58h-2q-29 -66 -100 -66q-106 0 -106 143v432h110z" />
    <glyph glyph-name="Wcircumflex" unicode="&#x174;" horiz-adv-x="544" 
d="M272 419h-1l-64 -419h-107l-91 678h110l53 -430h1l57 430h93l63 -430h1l52 430h96l-88 -678h-108zM273 733l-98 -29v55l72 53h50l72 -53v-55z" />
    <glyph glyph-name="wcircumflex" unicode="&#x175;" horiz-adv-x="490" 
d="M387 567h98l-85 -567h-99l-54 350l-59 -350h-98l-86 567h111l38 -340h1l57 340h81l57 -340h1zM246 622l-98 -29v55l72 53h50l72 -53v-55z" />
    <glyph glyph-name="Ycircumflex" unicode="&#x176;" horiz-adv-x="379" 
d="M373 678l-126 -420v-258h-114v258l-127 420h119l69 -257h1l69 257h109zM191 733l-98 -29v55l72 53h50l72 -53v-55z" />
    <glyph glyph-name="ycircumflex" unicode="&#x177;" horiz-adv-x="338" 
d="M236 567h100l-114 -559q-11 -54 -41.5 -76t-92.5 -22h-38v88h36q18 0 26.5 7t14.5 28l4 18h-26l-103 516h114l52 -348h1zM170 622l-98 -29v55l72 53h50l72 -53v-55z" />
    <glyph glyph-name="Ydieresis" unicode="&#x178;" horiz-adv-x="379" 
d="M373 678l-126 -420v-258h-114v258l-127 420h119l69 -257h1l69 257h109zM78 702v86h97v-86h-97zM199 702v86h97v-86h-97z" />
    <glyph glyph-name="Zacute" unicode="&#x179;" horiz-adv-x="336" 
d="M316 585l-180 -492h173v-93h-292v93l179 492h-161v93h281v-93zM270 805v-79l-179 -23v64z" />
    <glyph glyph-name="zacute" unicode="&#x17a;" horiz-adv-x="305" 
d="M284 479l-153 -391h152v-88h-263v88l153 391h-144v88h255v-88zM253 695v-79l-179 -23v64z" />
    <glyph glyph-name="Zdotaccent" unicode="&#x17b;" horiz-adv-x="336" 
d="M316 585l-180 -492h173v-93h-292v93l179 492h-161v93h281v-93zM123 702v86h110v-86h-110z" />
    <glyph glyph-name="zdotaccent" unicode="&#x17c;" horiz-adv-x="305" 
d="M284 479l-153 -391h152v-88h-263v88l153 391h-144v88h255v-88zM105 592v86h110v-86h-110z" />
    <glyph glyph-name="Zcaron" unicode="&#x17d;" horiz-adv-x="336" 
d="M316 585l-180 -492h173v-93h-292v93l179 492h-161v93h281v-93zM176 781l98 29v-55l-72 -53h-50l-72 53v55z" />
    <glyph glyph-name="zcaron" unicode="&#x17e;" horiz-adv-x="305" 
d="M284 479l-153 -391h152v-88h-263v88l153 391h-144v88h255v-88zM158 671l98 29v-55l-72 -53h-50l-72 53v55z" />
    <glyph glyph-name="florin" unicode="&#x192;" horiz-adv-x="256" 
d="M12 353v84h56l8 147q2 50 28 72t87 22h51v-84h-33q-13 0 -17.5 -5t-5.5 -18l-7 -134h63v-84h-67l-23 -443h-110l22 443h-52z" />
    <glyph glyph-name="Scommaaccent" unicode="&#x218;" 
d="M180 -8q-83 0 -122 41.5t-39 112.5v91h106v-93q0 -60 56 -60q52 0 52 60v26q0 28 -11.5 49t-39.5 47l-67 67q-53 52 -74 89t-21 92v23q0 67 40 108t120 41q83 0 121 -39t38 -115v-55h-104v59q0 58 -54 58t-54 -56v-14q0 -26 12.5 -45t41.5 -47l73 -72q51 -52 71.5 -87.5
t20.5 -88.5v-33q0 -73 -41 -116t-125 -43zM233 -21v-9l-31 -60h-68l6 69h93z" />
    <glyph glyph-name="scommaaccent" unicode="&#x219;" horiz-adv-x="343" 
d="M324 161v-19q0 -71 -38 -110.5t-115 -39.5q-75 0 -113 40.5t-38 114.5v59h99v-64q0 -59 51 -59q50 0 50 51v16q0 21 -13.5 38t-51.5 47l-42 33q-48 37 -68.5 70.5t-20.5 83.5v14q0 64 37.5 101.5t112.5 37.5q78 0 112 -38.5t34 -112.5v-31h-98v36q0 55 -48 55
q-47 0 -47 -45v-9q0 -20 11.5 -36t41.5 -36l40 -32q63 -50 83.5 -80t20.5 -85zM223 -21v-9l-31 -60h-68l6 69h93z" />
    <glyph glyph-name="uni0237" unicode="&#x237;" horiz-adv-x="160" 
d="M25 567h110v-560q0 -54 -28 -75.5t-98 -21.5h-14v75h7q23 0 23 24v558z" />
    <glyph glyph-name="circumflex" unicode="&#x2c6;" horiz-adv-x="400" 
d="M201 622l-98 -29v55l72 53h50l72 -53v-55z" />
    <glyph glyph-name="caron" unicode="&#x2c7;" horiz-adv-x="400" 
d="M199 671l98 29v-55l-72 -53h-50l-72 53v55z" />
    <glyph glyph-name="breve" unicode="&#x2d8;" horiz-adv-x="400" 
d="M231 684h65q-1 -41 -28 -66t-67 -25q-41 0 -68.5 25t-28.5 66h67q3 -23 30 -23q25 0 30 23z" />
    <glyph glyph-name="dotaccent" unicode="&#x2d9;" horiz-adv-x="400" 
d="M145 592v86h110v-86h-110z" />
    <glyph glyph-name="ring" unicode="&#x2da;" horiz-adv-x="400" 
d="M122 666q0 31 22 53t55 22t54.5 -22t21.5 -53t-21.5 -53t-54.5 -22t-55 22t-22 53zM168 666q0 -14 8.5 -23.5t22.5 -9.5t22.5 9.5t8.5 23.5t-8.5 23.5t-22.5 9.5t-22.5 -9.5t-8.5 -23.5z" />
    <glyph glyph-name="ogonek" unicode="&#x2db;" horiz-adv-x="400" 
d="M187 0h60q-17 -15 -17 -24t13 -9h4v-57h-40q-69 0 -69 41q0 15 12 27t24 17z" />
    <glyph glyph-name="tilde" unicode="&#x2dc;" horiz-adv-x="400" 
d="M152 595h-56q4 85 70 85q16 0 39 -8.5t29 -8.5q14 0 14 15h56q-4 -85 -70 -85q-16 0 -39 8.5t-29 8.5q-14 0 -14 -15z" />
    <glyph glyph-name="hungarumlaut" unicode="&#x2dd;" horiz-adv-x="400" 
d="M151 702h90l-46 -107h-63zM260 702h90l-46 -107h-63z" />
    <glyph glyph-name="Wgrave" unicode="&#x1e80;" horiz-adv-x="544" 
d="M272 419h-1l-64 -419h-107l-91 678h110l53 -430h1l57 430h93l63 -430h1l52 430h96l-88 -678h-108zM182 727v79l179 -38v-64z" />
    <glyph glyph-name="wgrave" unicode="&#x1e81;" horiz-adv-x="490" 
d="M387 567h98l-85 -567h-99l-54 350l-59 -350h-98l-86 567h111l38 -340h1l57 340h81l57 -340h1zM155 616v79l179 -38v-64z" />
    <glyph glyph-name="Wacute" unicode="&#x1e82;" horiz-adv-x="544" 
d="M272 419h-1l-64 -419h-107l-91 678h110l53 -430h1l57 430h93l63 -430h1l52 430h96l-88 -678h-108zM361 806v-79l-179 -23v64z" />
    <glyph glyph-name="wacute" unicode="&#x1e83;" horiz-adv-x="490" 
d="M387 567h98l-85 -567h-99l-54 350l-59 -350h-98l-86 567h111l38 -340h1l57 340h81l57 -340h1zM334 695v-79l-179 -23v64z" />
    <glyph glyph-name="Wdieresis" unicode="&#x1e84;" horiz-adv-x="544" 
d="M272 419h-1l-64 -419h-107l-91 678h110l53 -430h1l57 430h93l63 -430h1l52 430h96l-88 -678h-108zM163 703v86h97v-86h-97zM284 703v86h97v-86h-97z" />
    <glyph glyph-name="wdieresis" unicode="&#x1e85;" horiz-adv-x="490" 
d="M387 567h98l-85 -567h-99l-54 350l-59 -350h-98l-86 567h111l38 -340h1l57 340h81l57 -340h1zM136 592v86h97v-86h-97zM257 592v86h97v-86h-97z" />
    <glyph glyph-name="Ygrave" unicode="&#x1ef2;" horiz-adv-x="379" 
d="M373 678l-126 -420v-258h-114v258l-127 420h119l69 -257h1l69 257h109zM100 727v79l179 -38v-64z" />
    <glyph glyph-name="ygrave" unicode="&#x1ef3;" horiz-adv-x="338" 
d="M236 567h100l-114 -559q-11 -54 -41.5 -76t-92.5 -22h-38v88h36q18 0 26.5 7t14.5 28l4 18h-26l-103 516h114l52 -348h1zM80 616v79l179 -38v-64z" />
    <glyph glyph-name="uni2009" unicode="&#x2009;" horiz-adv-x="50" 
 />
    <glyph glyph-name="endash" unicode="&#x2013;" horiz-adv-x="334" 
d="M22 269v92h290v-92h-290z" />
    <glyph glyph-name="emdash" unicode="&#x2014;" horiz-adv-x="624" 
d="M22 269v92h580v-92h-580z" />
    <glyph glyph-name="quoteleft" unicode="&#x2018;" horiz-adv-x="135" 
d="M12 526v9l41 143h63l-6 -152h-98z" />
    <glyph glyph-name="quoteright" unicode="&#x2019;" horiz-adv-x="135" 
d="M123 678v-9l-41 -143h-63l6 152h98z" />
    <glyph glyph-name="quotesinglbase" unicode="&#x201a;" horiz-adv-x="135" 
d="M117 109v-9l-41 -143h-63l6 152h98z" />
    <glyph glyph-name="quotedblleft" unicode="&#x201c;" horiz-adv-x="255" 
d="M131 526v9l41 143h64l-7 -152h-98zM12 526v9l41 143h63l-6 -152h-98z" />
    <glyph glyph-name="quotedblright" unicode="&#x201d;" horiz-adv-x="255" 
d="M123 678v-9l-41 -143h-63l6 152h98zM243 678v-9l-41 -143h-64l7 152h98z" />
    <glyph glyph-name="quotedblbase" unicode="&#x201e;" horiz-adv-x="255" 
d="M117 109v-9l-41 -143h-63l6 152h98zM237 109v-9l-41 -143h-64l7 152h98z" />
    <glyph glyph-name="dagger" unicode="&#x2020;" horiz-adv-x="245" 
d="M16 491v76h64v111h85v-111h64v-76h-64v-491h-85v491h-64z" />
    <glyph glyph-name="daggerdbl" unicode="&#x2021;" horiz-adv-x="245" 
d="M16 491v76h64v111h85v-111h64v-76h-64v-304h64v-76h-64v-111h-85v111h-64v76h64v304h-64z" />
    <glyph glyph-name="bullet" unicode="&#x2022;" horiz-adv-x="203" 
d="M19 337q0 33 24.5 57.5t58.5 24.5q33 0 57.5 -24.5t24.5 -57.5q0 -34 -24.5 -58.5t-57.5 -24.5q-34 0 -58.5 24t-24.5 59z" />
    <glyph glyph-name="ellipsis" unicode="&#x2026;" horiz-adv-x="501" 
d="M196 0v109h109v-109h-109zM29 0v109h109v-109h-109zM363 0v109h109v-109h-109z" />
    <glyph glyph-name="perthousand" unicode="&#x2030;" horiz-adv-x="809" 
d="M418 678h69l-372 -678h-69zM152 389q-63 0 -95 36.5t-32 97.5v29q0 61 32 97.5t95 36.5t95 -36.5t32 -97.5v-29q0 -61 -32 -97.5t-95 -36.5zM152 461q39 0 39 50v53q0 50 -39 50t-39 -50v-53q0 -50 39 -50zM381 -8q-63 0 -95 36.5t-32 97.5v29q0 61 32 97.5t95 36.5
t95 -36.5t32 -97.5v-29q0 -61 -32 -97.5t-95 -36.5zM381 64q39 0 39 50v53q0 50 -39 50t-39 -50v-53q0 -50 39 -50zM657 -8q-63 0 -95 36.5t-32 97.5v29q0 61 32 97.5t95 36.5t95 -36.5t32 -97.5v-29q0 -61 -32 -97.5t-95 -36.5zM657 64q39 0 39 50v53q0 50 -39 50t-39 -50
v-53q0 -50 39 -50z" />
    <glyph glyph-name="guilsinglleft" unicode="&#x2039;" horiz-adv-x="173" 
d="M75 378h79l-54 -146l54 -146h-79l-56 146z" />
    <glyph glyph-name="guilsinglright" unicode="&#x203a;" horiz-adv-x="173" 
d="M19 378h79l56 -146l-56 -146h-79l54 146z" />
    <glyph glyph-name="fraction" unicode="&#x2044;" horiz-adv-x="121" 
d="M212 678h69l-372 -678h-69z" />
    <glyph glyph-name="Euro" unicode="&#x20ac;" horiz-adv-x="397" 
d="M9 342h35v28h-35v62h35v71q0 84 42 133.5t128 49.5q89 0 125 -44t36 -126v-51h-104v60q0 66 -55 66q-58 0 -58 -70v-89h98v-62h-98v-28h98v-62h-98v-123q0 -70 58 -70q55 0 55 66v89h104v-81q0 -169 -161 -169q-86 0 -128 50t-42 133v105h-35v62z" />
    <glyph glyph-name="trademark" unicode="&#x2122;" horiz-adv-x="348" 
d="M276 439v143h-1l-27 -143h-21l-30 143h-1v-143h-40v239h56l25 -125h1l22 125h60v-239h-44zM18 639v39h117v-39h-34v-200h-49v200h-34z" />
    <glyph glyph-name="onethird" unicode="&#x2153;" horiz-adv-x="249" 
d="M21 317v45h207v-45h-207zM100 678h61v-282h-72v198h-1l-39 -33h-1v67zM129 285q78 0 78 -73v-18q0 -38 -34 -47q38 -7 38 -49v-29q0 -74 -84 -74q-82 0 -82 78v27h63v-30q0 -24 19 -24q17 0 17 22v30q0 14 -4.5 19t-18.5 5h-22v46h17q16 0 21.5 5.5t5.5 19.5v19
q0 22 -17 22t-17 -24v-20h-63v17q0 78 83 78z" />
    <glyph glyph-name="twothirds" unicode="&#x2154;" horiz-adv-x="262" 
d="M21 317v45h220v-45h-220zM137 285q78 0 78 -73v-18q0 -38 -34 -47q38 -7 38 -49v-29q0 -74 -84 -74q-82 0 -82 78v27h63v-30q0 -24 19 -24q17 0 17 22v30q0 14 -4.5 19t-18.5 5h-22v46h17q16 0 21.5 5.5t5.5 19.5v19q0 22 -17 22t-17 -24v-20h-63v17q0 78 83 78zM51 396
v47q0 35 9 52t35 35l35 25q16 11 16 35v19q0 19 -15 19q-16 0 -16 -22v-25h-64v24q0 77 80 77q42 0 62 -17.5t20 -56.5v-22q0 -46 -35 -71l-43 -30q-13 -9 -16 -14.5t-3 -19.5v-1h92v-54h-157z" />
    <glyph glyph-name="minus" unicode="&#x2212;" horiz-adv-x="361" 
d="M22 292v88h317v-88h-317z" />
    <glyph glyph-name="space_uni0326" horiz-adv-x="400" 
d="M218 -21v-9l-31 -60h-68l6 69h93z" />
    <glyph glyph-name="idotaccent" horiz-adv-x="160" 
d="M25 0v567h110v-567h-110zM25 592v86h110v-86h-110z" />
    <glyph glyph-name="C.round" horiz-adv-x="691" 
d="M675 436h-112q-20 72 -73 112.5t-134 40.5q-103 0 -164.5 -70.5t-61.5 -180.5t61.5 -179.5t164.5 -69.5q91 0 148 51t70 138h108q-17 -132 -104.5 -210.5t-221.5 -78.5q-147 0 -245.5 99t-98.5 250q0 152 98.5 251.5t245.5 99.5q127 0 210.5 -65.5t108.5 -187.5z" />
    <glyph glyph-name="Cacute.round" horiz-adv-x="691" 
d="M675 436h-112q-20 72 -73 112.5t-134 40.5q-103 0 -164.5 -70.5t-61.5 -180.5t61.5 -179.5t164.5 -69.5q91 0 148 51t70 138h108q-17 -132 -104.5 -210.5t-221.5 -78.5q-147 0 -245.5 99t-98.5 250q0 152 98.5 251.5t245.5 99.5q127 0 210.5 -65.5t108.5 -187.5zM456 805
v-79l-179 -23v64z" />
    <glyph glyph-name="Ccaron.round" horiz-adv-x="691" 
d="M675 436h-112q-20 72 -73 112.5t-134 40.5q-103 0 -164.5 -70.5t-61.5 -180.5t61.5 -179.5t164.5 -69.5q91 0 148 51t70 138h108q-17 -132 -104.5 -210.5t-221.5 -78.5q-147 0 -245.5 99t-98.5 250q0 152 98.5 251.5t245.5 99.5q127 0 210.5 -65.5t108.5 -187.5zM362 781
l98 29v-55l-72 -53h-50l-72 53v55z" />
    <glyph glyph-name="Ccedilla.round" horiz-adv-x="691" 
d="M302 -108v32q37 1 37 16q0 11 -16 11h-5v40q-133 13 -219.5 109.5t-86.5 237.5q0 152 98.5 251.5t245.5 99.5q127 0 210.5 -65.5t108.5 -187.5h-112q-20 72 -73 112.5t-134 40.5q-103 0 -164.5 -70.5t-61.5 -180.5t61.5 -179.5t164.5 -69.5q91 0 148 51t70 138h108
q-17 -131 -103 -209.5t-218 -79.5v-13q42 -6 42 -36q0 -48 -101 -48z" />
    <glyph glyph-name="Ccircumflex.round" horiz-adv-x="691" 
d="M675 436h-112q-20 72 -73 112.5t-134 40.5q-103 0 -164.5 -70.5t-61.5 -180.5t61.5 -179.5t164.5 -69.5q91 0 148 51t70 138h108q-17 -132 -104.5 -210.5t-221.5 -78.5q-147 0 -245.5 99t-98.5 250q0 152 98.5 251.5t245.5 99.5q127 0 210.5 -65.5t108.5 -187.5zM364 732
l-98 -29v55l72 53h50l72 -53v-55z" />
    <glyph glyph-name="Cdotaccent.round" horiz-adv-x="691" 
d="M675 436h-112q-20 72 -73 112.5t-134 40.5q-103 0 -164.5 -70.5t-61.5 -180.5t61.5 -179.5t164.5 -69.5q91 0 148 51t70 138h108q-17 -132 -104.5 -210.5t-221.5 -78.5q-147 0 -245.5 99t-98.5 250q0 152 98.5 251.5t245.5 99.5q127 0 210.5 -65.5t108.5 -187.5zM309 702
v86h110v-86h-110z" />
    <glyph glyph-name="D.round" horiz-adv-x="613" 
d="M286 0h-261v678h261q142 0 228.5 -93.5t86.5 -246.5q0 -152 -86.5 -245t-228.5 -93zM270 582h-131v-486h131q102 0 157.5 65.5t55.5 176.5t-55.5 177.5t-157.5 66.5z" />
    <glyph glyph-name="Dcaron.round" horiz-adv-x="613" 
d="M286 0h-261v678h261q142 0 228.5 -93.5t86.5 -246.5q0 -152 -86.5 -245t-228.5 -93zM270 582h-131v-486h131q102 0 157.5 65.5t55.5 176.5t-55.5 177.5t-157.5 66.5zM258 781l98 29v-55l-72 -53h-50l-72 53v55z" />
    <glyph glyph-name="Dcroat.round" horiz-adv-x="633" 
d="M6 299v92h39v287h245q145 0 238 -96.5t93 -243.5t-92.5 -242.5t-238.5 -95.5h-245v299h-39zM290 582h-131v-191h163v-92h-163v-203h131q102 0 157.5 65.5t55.5 176.5t-55.5 177.5t-157.5 66.5z" />
    <glyph glyph-name="Eth.round" horiz-adv-x="633" 
d="M6 299v92h39v287h245q145 0 238 -96.5t93 -243.5t-92.5 -242.5t-238.5 -95.5h-245v299h-39zM290 582h-131v-191h163v-92h-163v-203h131q102 0 157.5 65.5t55.5 176.5t-55.5 177.5t-157.5 66.5z" />
    <glyph glyph-name="G.alt" horiz-adv-x="380" 
d="M197 272v90h159v-201q0 -169 -161 -169q-86 0 -128 50t-42 133v328q0 84 42 133.5t128 49.5q89 0 125 -44t36 -126v-60h-104v69q0 66 -55 66q-58 0 -58 -70v-364q0 -70 56 -70q54 0 54 66v119h-52z" />
    <glyph glyph-name="Gbreve.alt" horiz-adv-x="380" 
d="M197 272v90h159v-201q0 -169 -161 -169q-86 0 -128 50t-42 133v328q0 84 42 133.5t128 49.5q89 0 125 -44t36 -126v-60h-104v69q0 66 -55 66q-58 0 -58 -70v-364q0 -70 56 -70q54 0 54 66v119h-52zM225 794h65q-1 -41 -28 -66t-67 -25q-41 0 -68.5 25t-28.5 66h67
q3 -23 30 -23q25 0 30 23z" />
    <glyph glyph-name="Gcircumflex.alt" horiz-adv-x="380" 
d="M197 272v90h159v-201q0 -169 -161 -169q-86 0 -128 50t-42 133v328q0 84 42 133.5t128 49.5q89 0 125 -44t36 -126v-60h-104v69q0 66 -55 66q-58 0 -58 -70v-364q0 -70 56 -70q54 0 54 66v119h-52zM195 732l-98 -29v55l72 53h50l72 -53v-55z" />
    <glyph glyph-name="Gcommaaccent.alt" horiz-adv-x="380" 
d="M197 272v90h159v-201q0 -169 -161 -169q-86 0 -128 50t-42 133v328q0 84 42 133.5t128 49.5q89 0 125 -44t36 -126v-60h-104v69q0 66 -55 66q-58 0 -58 -70v-364q0 -70 56 -70q54 0 54 66v119h-52zM242 -21v-9l-31 -60h-68l6 69h93z" />
    <glyph glyph-name="Gdotaccent.alt" horiz-adv-x="380" 
d="M197 272v90h159v-201q0 -169 -161 -169q-86 0 -128 50t-42 133v328q0 84 42 133.5t128 49.5q89 0 125 -44t36 -126v-60h-104v69q0 66 -55 66q-58 0 -58 -70v-364q0 -70 56 -70q54 0 54 66v119h-52zM140 702v86h110v-86h-110z" />
    <glyph glyph-name="G.round" horiz-adv-x="701" 
d="M672 436h-114q-32 153 -199 153q-103 0 -166 -71t-63 -180q0 -110 60 -179.5t161 -69.5q96 0 153.5 48.5t68.5 134.5h-167v90h270v-362h-82v127q-29 -63 -93.5 -100.5t-150.5 -37.5q-145 0 -241.5 99t-96.5 250t100 251t247 100q127 0 211 -66t102 -187z" />
    <glyph glyph-name="Gbreve.round" horiz-adv-x="701" 
d="M672 436h-114q-32 153 -199 153q-103 0 -166 -71t-63 -180q0 -110 60 -179.5t161 -69.5q96 0 153.5 48.5t68.5 134.5h-167v90h270v-362h-82v127q-29 -63 -93.5 -100.5t-150.5 -37.5q-145 0 -241.5 99t-96.5 250t100 251t247 100q127 0 211 -66t102 -187zM392 794h65
q-1 -41 -28 -66t-67 -25q-41 0 -68.5 25t-28.5 66h67q3 -23 30 -23q25 0 30 23z" />
    <glyph glyph-name="Gcircumflex.round" horiz-adv-x="701" 
d="M672 436h-114q-32 153 -199 153q-103 0 -166 -71t-63 -180q0 -110 60 -179.5t161 -69.5q96 0 153.5 48.5t68.5 134.5h-167v90h270v-362h-82v127q-29 -63 -93.5 -100.5t-150.5 -37.5q-145 0 -241.5 99t-96.5 250t100 251t247 100q127 0 211 -66t102 -187zM362 732l-98 -29
v55l72 53h50l72 -53v-55z" />
    <glyph glyph-name="Gcommaaccent.round" horiz-adv-x="701" 
d="M672 436h-114q-32 153 -199 153q-103 0 -166 -71t-63 -180q0 -110 60 -179.5t161 -69.5q96 0 153.5 48.5t68.5 134.5h-167v90h270v-362h-82v127q-29 -63 -93.5 -100.5t-150.5 -37.5q-145 0 -241.5 99t-96.5 250t100 251t247 100q127 0 211 -66t102 -187zM397 -21v-9
l-31 -60h-68l6 69h93z" />
    <glyph glyph-name="Gdotaccent.round" horiz-adv-x="701" 
d="M672 436h-114q-32 153 -199 153q-103 0 -166 -71t-63 -180q0 -110 60 -179.5t161 -69.5q96 0 153.5 48.5t68.5 134.5h-167v90h270v-362h-82v127q-29 -63 -93.5 -100.5t-150.5 -37.5q-145 0 -241.5 99t-96.5 250t100 251t247 100q127 0 211 -66t102 -187zM307 702v86h110
v-86h-110z" />
    <glyph glyph-name="G.altround" horiz-adv-x="700" 
d="M392 272v90h296v-29q0 -167 -85.5 -255.5t-237.5 -88.5q-154 0 -253.5 98.5t-99.5 250.5t101.5 251.5t252.5 99.5q123 0 203 -60t105 -173h-115q-16 64 -67 98.5t-126 34.5q-107 0 -171.5 -70.5t-64.5 -180.5t62.5 -179.5t171.5 -69.5q185 0 211 183h-183z" />
    <glyph glyph-name="Gbreve.altround" horiz-adv-x="700" 
d="M392 272v90h296v-29q0 -167 -85.5 -255.5t-237.5 -88.5q-154 0 -253.5 98.5t-99.5 250.5t101.5 251.5t252.5 99.5q123 0 203 -60t105 -173h-115q-16 64 -67 98.5t-126 34.5q-107 0 -171.5 -70.5t-64.5 -180.5t62.5 -179.5t171.5 -69.5q185 0 211 183h-183zM396 794h65
q-1 -41 -28 -66t-67 -25q-41 0 -68.5 25t-28.5 66h67q3 -23 30 -23q25 0 30 23z" />
    <glyph glyph-name="Gcircumflex.altround" horiz-adv-x="700" 
d="M392 272v90h296v-29q0 -167 -85.5 -255.5t-237.5 -88.5q-154 0 -253.5 98.5t-99.5 250.5t101.5 251.5t252.5 99.5q123 0 203 -60t105 -173h-115q-16 64 -67 98.5t-126 34.5q-107 0 -171.5 -70.5t-64.5 -180.5t62.5 -179.5t171.5 -69.5q185 0 211 183h-183zM366 732
l-98 -29v55l72 53h50l72 -53v-55z" />
    <glyph glyph-name="Gcommaaccent.altround" horiz-adv-x="700" 
d="M392 272v90h296v-29q0 -167 -85.5 -255.5t-237.5 -88.5q-154 0 -253.5 98.5t-99.5 250.5t101.5 251.5t252.5 99.5q123 0 203 -60t105 -173h-115q-16 64 -67 98.5t-126 34.5q-107 0 -171.5 -70.5t-64.5 -180.5t62.5 -179.5t171.5 -69.5q185 0 211 183h-183zM416 -21v-9
l-31 -60h-68l6 69h93z" />
    <glyph glyph-name="Gdotaccent.altround" horiz-adv-x="700" 
d="M392 272v90h296v-29q0 -167 -85.5 -255.5t-237.5 -88.5q-154 0 -253.5 98.5t-99.5 250.5t101.5 251.5t252.5 99.5q123 0 203 -60t105 -173h-115q-16 64 -67 98.5t-126 34.5q-107 0 -171.5 -70.5t-64.5 -180.5t62.5 -179.5t171.5 -69.5q185 0 211 183h-183zM311 702v86
h110v-86h-110z" />
    <glyph glyph-name="O.round" horiz-adv-x="720" 
d="M12 338q0 151 100.5 251t247.5 100t247.5 -100t100.5 -251t-100 -250t-248 -99t-248 99t-100 250zM130 338q0 -109 63.5 -179t166.5 -70t166.5 70t63.5 179t-63.5 180t-166.5 71t-166.5 -71t-63.5 -180z" />
    <glyph glyph-name="Oacute.round" horiz-adv-x="720" 
d="M12 338q0 151 100.5 251t247.5 100t247.5 -100t100.5 -251t-100 -250t-248 -99t-248 99t-100 250zM130 338q0 -109 63.5 -179t166.5 -70t166.5 70t63.5 179t-63.5 180t-166.5 71t-166.5 -71t-63.5 -180zM451 805v-79l-179 -23v64z" />
    <glyph glyph-name="Obreve.round" horiz-adv-x="720" 
d="M12 338q0 151 100.5 251t247.5 100t247.5 -100t100.5 -251t-100 -250t-248 -99t-248 99t-100 250zM130 338q0 -109 63.5 -179t166.5 -70t166.5 70t63.5 179t-63.5 180t-166.5 71t-166.5 -71t-63.5 -180zM389 794h65q-1 -41 -28 -66t-67 -25q-41 0 -68.5 25t-28.5 66h67
q3 -23 30 -23q25 0 30 23z" />
    <glyph glyph-name="Ocircumflex.round" horiz-adv-x="720" 
d="M12 338q0 151 100.5 251t247.5 100t247.5 -100t100.5 -251t-100 -250t-248 -99t-248 99t-100 250zM130 338q0 -109 63.5 -179t166.5 -70t166.5 70t63.5 179t-63.5 180t-166.5 71t-166.5 -71t-63.5 -180zM359 732l-98 -29v55l72 53h50l72 -53v-55z" />
    <glyph glyph-name="Odieresis.round" horiz-adv-x="720" 
d="M12 338q0 151 100.5 251t247.5 100t247.5 -100t100.5 -251t-100 -250t-248 -99t-248 99t-100 250zM130 338q0 -109 63.5 -179t166.5 -70t166.5 70t63.5 179t-63.5 180t-166.5 71t-166.5 -71t-63.5 -180zM249 702v86h97v-86h-97zM370 702v86h97v-86h-97z" />
    <glyph glyph-name="Ograve.round" horiz-adv-x="720" 
d="M12 338q0 151 100.5 251t247.5 100t247.5 -100t100.5 -251t-100 -250t-248 -99t-248 99t-100 250zM130 338q0 -109 63.5 -179t166.5 -70t166.5 70t63.5 179t-63.5 180t-166.5 71t-166.5 -71t-63.5 -180zM267 726v79l179 -38v-64z" />
    <glyph glyph-name="Ohungarumlaut.round" horiz-adv-x="720" 
d="M12 338q0 151 100.5 251t247.5 100t247.5 -100t100.5 -251t-100 -250t-248 -99t-248 99t-100 250zM130 338q0 -109 63.5 -179t166.5 -70t166.5 70t63.5 179t-63.5 180t-166.5 71t-166.5 -71t-63.5 -180zM289 812h90l-46 -107h-63zM398 812h90l-46 -107h-63z" />
    <glyph glyph-name="Omacron.round" horiz-adv-x="720" 
d="M12 338q0 151 100.5 251t247.5 100t247.5 -100t100.5 -251t-100 -250t-248 -99t-248 99t-100 250zM130 338q0 -109 63.5 -179t166.5 -70t166.5 70t63.5 179t-63.5 180t-166.5 71t-166.5 -71t-63.5 -180zM260 710v67h196v-67h-196z" />
    <glyph glyph-name="Otilde.round" horiz-adv-x="720" 
d="M12 338q0 151 100.5 251t247.5 100t247.5 -100t100.5 -251t-100 -250t-248 -99t-248 99t-100 250zM130 338q0 -109 63.5 -179t166.5 -70t166.5 70t63.5 179t-63.5 180t-166.5 71t-166.5 -71t-63.5 -180zM310 705h-56q4 85 70 85q16 0 39 -8.5t29 -8.5q14 0 14 15h56
q-4 -85 -70 -85q-16 0 -39 8.5t-29 8.5q-14 0 -14 -15z" />
    <glyph glyph-name="Oslash.round" horiz-adv-x="720" 
d="M12 338q0 151 100.5 251t247.5 100q103 0 190 -54l34 43h89l-69 -86q104 -102 104 -254q0 -151 -100 -250t-248 -99q-105 0 -191 53l-33 -42h-89l68 85q-103 100 -103 253zM590 338q0 98 -54 168l-302 -382q56 -35 126 -35q103 0 166.5 70t63.5 179zM130 338
q0 -100 53 -167l302 382q-55 36 -125 36q-103 0 -166.5 -71t-63.5 -180z" />
    <glyph glyph-name="Q.alt1" horiz-adv-x="395" 
d="M300 -46l-27 51q-36 -13 -76 -13q-86 0 -129 50t-43 133v328q0 84 43 133.5t129 49.5q87 0 130 -49.5t43 -133.5v-328q0 -63 -26 -109l57 -110v-2h-101zM197 82q18 0 31 7l-51 96v2h79v334q0 70 -59 70q-58 0 -58 -70v-369q0 -32 14.5 -51t43.5 -19z" />
    <glyph glyph-name="Q.alt2" horiz-adv-x="395" 
d="M302 -94q-90 0 -90 87h-14q-87 0 -130 49.5t-43 132.5v328q0 84 43 133.5t129 49.5q87 0 130 -49.5t43 -133.5v-328q0 -103 -61 -149v-23q0 -28 17 -28q18 0 18 25v31h38v-32q0 -93 -80 -93zM197 591q-58 0 -58 -70v-349q17 45 66 45q30 0 51 -21v325q0 70 -59 70z
M197 76h17v36q0 40 -30 40q-13 0 -21.5 -9.5t-8.5 -25.5q0 -18 11.5 -29.5t31.5 -11.5z" />
    <glyph glyph-name="Q.round" horiz-adv-x="720" 
d="M12 338q0 151 100.5 251t247.5 100t247.5 -100t100.5 -251q0 -131 -66.5 -213t-186.5 -106l195 -20v-85l-345 34v50q-128 18 -210.5 111t-82.5 229zM130 338q0 -109 63.5 -179t166.5 -70t166.5 70t63.5 179t-63.5 180t-166.5 71t-166.5 -71t-63.5 -180z" />
    <glyph glyph-name="Q.altround" horiz-adv-x="720" 
d="M12 338q0 151 100.5 251t247.5 100t247.5 -100t100.5 -251q0 -157 -109 -258l97 -124v-2h-123l-56 70q-72 -35 -157 -35q-148 0 -248 99t-100 250zM130 338q0 -109 63.5 -180t166.5 -71q51 0 94 17l-104 131v2h128l56 -73q56 67 56 174q0 109 -63.5 180t-166.5 71
t-166.5 -71t-63.5 -180z" />
    <glyph glyph-name="R.alt1" horiz-adv-x="384" 
d="M25 0v678h164q83 0 120 -36.5t37 -110.5v-84q0 -86 -70 -106q42 -9 62.5 -36.5t20.5 -81.5v-128q0 -19 15 -19h5v-76h-51q-46 0 -64.5 19.5t-18.5 65.5v145q0 59 -57 59h-49v-289h-114zM177 585h-38v-211h38q55 0 55 55v101q0 55 -55 55z" />
    <glyph glyph-name="Racute.alt1" horiz-adv-x="384" 
d="M25 0v678h164q83 0 120 -36.5t37 -110.5v-84q0 -86 -70 -106q42 -9 62.5 -36.5t20.5 -81.5v-128q0 -19 15 -19h5v-76h-51q-46 0 -64.5 19.5t-18.5 65.5v145q0 59 -57 59h-49v-289h-114zM177 585h-38v-211h38q55 0 55 55v101q0 55 -55 55zM275 805v-79l-179 -23v64z" />
    <glyph glyph-name="Rcaron.alt1" horiz-adv-x="384" 
d="M25 0v678h164q83 0 120 -36.5t37 -110.5v-84q0 -86 -70 -106q42 -9 62.5 -36.5t20.5 -81.5v-128q0 -19 15 -19h5v-76h-51q-46 0 -64.5 19.5t-18.5 65.5v145q0 59 -57 59h-49v-289h-114zM177 585h-38v-211h38q55 0 55 55v101q0 55 -55 55zM181 781l98 29v-55l-72 -53h-50
l-72 53v55z" />
    <glyph glyph-name="Rcommaaccent.alt1" horiz-adv-x="384" 
d="M25 0v678h164q83 0 120 -36.5t37 -110.5v-84q0 -86 -70 -106q42 -9 62.5 -36.5t20.5 -81.5v-128q0 -19 15 -19h5v-76h-51q-46 0 -64.5 19.5t-18.5 65.5v145q0 59 -57 59h-49v-289h-114zM177 585h-38v-211h38q55 0 55 55v101q0 55 -55 55zM251 -21v-9l-31 -60h-68l6 69h93
z" />
    <glyph glyph-name="R.alt2" horiz-adv-x="387" 
d="M25 0v678h166q83 0 120 -39t37 -113v-84q0 -80 -65 -101q79 -19 79 -118v-223h-115v230q0 59 -55 59h-53v-289h-114zM180 585h-41v-211h41q56 0 56 55v101q0 55 -56 55z" />
    <glyph glyph-name="Racute.alt2" horiz-adv-x="387" 
d="M25 0v678h166q83 0 120 -39t37 -113v-84q0 -80 -65 -101q79 -19 79 -118v-223h-115v230q0 59 -55 59h-53v-289h-114zM180 585h-41v-211h41q56 0 56 55v101q0 55 -56 55zM269 805v-79l-179 -23v64z" />
    <glyph glyph-name="Rcaron.alt2" horiz-adv-x="387" 
d="M25 0v678h166q83 0 120 -39t37 -113v-84q0 -80 -65 -101q79 -19 79 -118v-223h-115v230q0 59 -55 59h-53v-289h-114zM180 585h-41v-211h41q56 0 56 55v101q0 55 -56 55zM175 781l98 29v-55l-72 -53h-50l-72 53v55z" />
    <glyph glyph-name="Rcommaaccent.alt2" horiz-adv-x="387" 
d="M25 0v678h166q83 0 120 -39t37 -113v-84q0 -80 -65 -101q79 -19 79 -118v-223h-115v230q0 59 -55 59h-53v-289h-114zM180 585h-41v-211h41q56 0 56 55v101q0 55 -56 55zM237 -21v-9l-31 -60h-68l6 69h93z" />
    <glyph glyph-name="X.round" horiz-adv-x="583" 
d="M154 678l142 -234l140 234h123l-201 -325l222 -353h-134l-161 264l-159 -264h-123l220 356l-202 322h133z" />
    <glyph glyph-name="f.short" horiz-adv-x="222" 
d="M14 483v84h40v17q0 49 25 71.5t81 22.5h54v-75h-27q-23 0 -23 -23v-13h50v-84h-50v-483h-110v483h-40z" />
    <glyph glyph-name="g.alt1" horiz-adv-x="344" 
d="M178 103h-64q-95 0 -95 77q0 62 69 83v1q-67 31 -67 128v40q0 135 149 135h162v-80h-46v-2q34 -21 34 -61v-32q0 -144 -150 -144h-33q-29 0 -29 -22q0 -23 25 -23h45q77 0 115 -30.5t38 -101.5v-23q0 -146 -155 -146q-154 0 -154 143v32h105v-34q0 -54 49 -54q50 0 50 53
v17q0 44 -48 44zM170 329q47 0 47 55v52q0 55 -47 55q-46 0 -46 -55v-52q0 -55 46 -55z" />
    <glyph glyph-name="gbreve.alt1" horiz-adv-x="344" 
d="M178 103h-64q-95 0 -95 77q0 62 69 83v1q-67 31 -67 128v40q0 135 149 135h162v-80h-46v-2q34 -21 34 -61v-32q0 -144 -150 -144h-33q-29 0 -29 -22q0 -23 25 -23h45q77 0 115 -30.5t38 -101.5v-23q0 -146 -155 -146q-154 0 -154 143v32h105v-34q0 -54 49 -54q50 0 50 53
v17q0 44 -48 44zM170 329q47 0 47 55v52q0 55 -47 55q-46 0 -46 -55v-52q0 -55 46 -55zM214 684h65q-1 -41 -28 -66t-67 -25q-41 0 -68.5 25t-28.5 66h67q3 -23 30 -23q25 0 30 23z" />
    <glyph glyph-name="gcircumflex.alt1" horiz-adv-x="344" 
d="M178 103h-64q-95 0 -95 77q0 62 69 83v1q-67 31 -67 128v40q0 135 149 135h162v-80h-46v-2q34 -21 34 -61v-32q0 -144 -150 -144h-33q-29 0 -29 -22q0 -23 25 -23h45q77 0 115 -30.5t38 -101.5v-23q0 -146 -155 -146q-154 0 -154 143v32h105v-34q0 -54 49 -54q50 0 50 53
v17q0 44 -48 44zM184 622l-98 -29v55l72 53h50l72 -53v-55zM170 329q47 0 47 55v52q0 55 -47 55q-46 0 -46 -55v-52q0 -55 46 -55z" />
    <glyph glyph-name="gcommaaccent.alt1" horiz-adv-x="344" 
d="M178 103h-64q-95 0 -95 77q0 62 69 83v1q-67 31 -67 128v40q0 135 149 135h162v-80h-46v-2q34 -21 34 -61v-32q0 -144 -150 -144h-33q-29 0 -29 -22q0 -23 25 -23h45q77 0 115 -30.5t38 -101.5v-23q0 -146 -155 -146q-154 0 -154 143v32h105v-34q0 -54 49 -54q50 0 50 53
v17q0 44 -48 44zM170 329q47 0 47 55v52q0 55 -47 55q-46 0 -46 -55v-52q0 -55 46 -55zM133 592v9l31 60h68l-6 -69h-93z" />
    <glyph glyph-name="gdotaccent.alt1" horiz-adv-x="344" 
d="M178 103h-64q-95 0 -95 77q0 62 69 83v1q-67 31 -67 128v40q0 135 149 135h162v-80h-46v-2q34 -21 34 -61v-32q0 -144 -150 -144h-33q-29 0 -29 -22q0 -23 25 -23h45q77 0 115 -30.5t38 -101.5v-23q0 -146 -155 -146q-154 0 -154 143v32h105v-34q0 -54 49 -54q50 0 50 53
v17q0 44 -48 44zM170 329q47 0 47 55v52q0 55 -47 55q-46 0 -46 -55v-52q0 -55 46 -55zM129 592v86h110v-86h-110z" />
    <glyph glyph-name="g.alt2" horiz-adv-x="344" 
d="M333 487h-43v-2q30 -13 30 -61v-38q0 -138 -149 -143q-28 -2 -44.5 -12t-16.5 -26v-2h68q77 0 115 -30.5t38 -101.5v-23q0 -146 -154 -146t-154 143v32h104v-34q0 -54 50 -54t50 53v17q0 44 -49 44h-155v54q0 44 17 66t52 31v2q-71 31 -71 130v46q0 135 150 135h162v-80z
M171 324q46 0 46 55v57q0 55 -46 55q-47 0 -47 -55v-57q0 -55 47 -55z" />
    <glyph glyph-name="gbreve.alt2" horiz-adv-x="344" 
d="M333 487h-43v-2q30 -13 30 -61v-38q0 -138 -147 -143h-6q-26 -2 -41.5 -12t-15.5 -26v-2h68q77 0 115 -30.5t38 -101.5v-23q0 -146 -154 -146t-154 143v32h104v-34q0 -54 50 -54t50 53v17q0 44 -49 44h-155v54q0 44 17 66t52 31v2q-71 31 -71 130v46q0 135 150 135h162
v-80zM171 324q46 0 46 55v57q0 55 -46 55q-47 0 -47 -55v-57q0 -55 47 -55zM214 684h65q-1 -41 -28 -66t-67 -25q-41 0 -68.5 25t-28.5 66h67q3 -23 30 -23q25 0 30 23z" />
    <glyph glyph-name="gcircumflex.alt2" horiz-adv-x="344" 
d="M333 487h-43v-2q30 -13 30 -61v-38q0 -138 -147 -143h-6q-26 -2 -41.5 -12t-15.5 -26v-2h68q77 0 115 -30.5t38 -101.5v-23q0 -146 -154 -146t-154 143v32h104v-34q0 -54 50 -54t50 53v17q0 44 -49 44h-155v54q0 44 17 66t52 31v2q-71 31 -71 130v46q0 135 150 135h162
v-80zM184 622l-98 -29v55l72 53h50l72 -53v-55zM171 324q46 0 46 55v57q0 55 -46 55q-47 0 -47 -55v-57q0 -55 47 -55z" />
    <glyph glyph-name="gcommaaccent.alt2" horiz-adv-x="344" 
d="M333 487h-43v-2q30 -13 30 -61v-38q0 -138 -149 -143h-4q-26 -2 -41.5 -12t-15.5 -26v-2h68q77 0 115 -30.5t38 -101.5v-23q0 -146 -154 -146t-154 143v32h104v-34q0 -54 50 -54t50 53v17q0 44 -49 44h-155v54q0 44 17 66t52 31v2q-71 31 -71 130v46q0 135 150 135h162
v-80zM171 324q46 0 46 55v57q0 55 -46 55q-47 0 -47 -55v-57q0 -55 47 -55zM129 592v9l31 60h68l-6 -69h-93z" />
    <glyph glyph-name="gdotaccent.alt2" horiz-adv-x="344" 
d="M333 487h-43v-2q30 -13 30 -61v-38q0 -138 -147 -143h-6q-26 -2 -41.5 -12t-15.5 -26v-2h68q77 0 115 -30.5t38 -101.5v-23q0 -146 -154 -146t-154 143v32h104v-34q0 -54 50 -54t50 53v17q0 44 -49 44h-155v54q0 44 17 66t52 31v2q-71 31 -71 130v46q0 135 150 135h162
v-80zM171 324q46 0 46 55v57q0 55 -46 55q-47 0 -47 -55v-57q0 -55 47 -55zM125 592v86h110v-86h-110z" />
    <glyph glyph-name="i.low" horiz-adv-x="160" 
d="M25 0v567h110v-567h-110zM25 592v86h110v-86h-110z" />
    <glyph glyph-name="j.low" horiz-adv-x="160" 
d="M25 567h110v-560q0 -54 -28 -75.5t-98 -21.5h-14v75h7q23 0 23 24v558zM25 592v86h110v-86h-110z" />
    <glyph glyph-name="zero.round" horiz-adv-x="720" 
d="M12 338q0 151 100.5 251t247.5 100t247.5 -100t100.5 -251t-100 -250t-248 -99t-248 99t-100 250zM130 338q0 -109 63.5 -179t166.5 -70t166.5 70t63.5 179t-63.5 180t-166.5 71t-166.5 -71t-63.5 -180z" />
    <glyph glyph-name="f_f.short" horiz-adv-x="423" 
d="M14 483v84h40v17q0 49 25 71.5t81 22.5h63v-75h-36q-23 0 -23 -23v-13h91v17q0 49 25 71.5t81 22.5h54v-75h-27q-23 0 -23 -23v-13h50v-84h-50v-483h-110v483h-91v-483h-110v483h-40z" />
    <glyph glyph-name="ampersand.alt1" horiz-adv-x="388" 
d="M181 686q86 0 121.5 -40t35.5 -123v-47h-104v49q0 66 -47 66q-48 0 -48 -61v-73q0 -55 58 -55h177v-87h-27v-154q0 -169 -160 -169q-84 0 -125 41t-41 114v100q0 97 81 115q-71 23 -71 110v59q0 155 150 155zM187 87q56 0 56 66v162h-55q-29 0 -41 -13.5t-12 -41.5v-112
q0 -28 13.5 -44.5t38.5 -16.5z" />
    <glyph glyph-name="ampersand.alt2" horiz-adv-x="436" 
d="M358 468h-102v69q0 56 -37 56q-38 0 -38 -53q0 -54 23 -100l87 -171l37 133h95l-72 -249l33 -64q6 -13 22 -13h15v-76h-56q-30 0 -44.5 9.5t-27.5 34.5q-36 -52 -115 -52q-156 0 -156 166v109q0 56 20.5 88.5t62.5 53.5q-30 63 -30 126q0 73 36 112t107 39
q72 0 106 -36.5t34 -109.5v-72zM190 84q41 0 60 42l-111 216q-5 -15 -5 -49v-139q0 -38 13.5 -54t42.5 -16z" />
    <glyph glyph-name="ampersand.alt3" horiz-adv-x="433" 
d="M22 267q0 56 20.5 88.5t62.5 53.5q-33 66 -33 126q0 73 36 112t107 39q137 0 137 -146q0 -107 -123 -150l64 -124l37 136h90l-71 -245l80 -157h-114l-23 44q-36 -52 -114 -52q-156 0 -156 166v109zM190 84q42 0 61 41l-112 217q-5 -15 -5 -49v-139q0 -38 13.5 -54
t42.5 -16zM178 540q0 -48 20 -90q31 14 42.5 34t11.5 53q0 58 -36 58q-38 0 -38 -55z" />
    <glyph glyph-name="hyphen.uc" horiz-adv-x="196" 
d="M18 309v92h160v-92h-160z" />
    <glyph glyph-name="endash.uc" horiz-adv-x="334" 
d="M22 309v92h290v-92h-290z" />
    <glyph glyph-name="emdash.uc" horiz-adv-x="624" 
d="M22 309v92h580v-92h-580z" />
    <glyph glyph-name="exclamdown.uc" horiz-adv-x="166" 
d="M137 678v-100h-109v100h109zM110 542l32 -542h-118l31 542h55z" />
    <glyph glyph-name="questiondown.uc" horiz-adv-x="342" 
d="M140 542h97v-84q0 -31 -5.5 -53t-11.5 -33.5t-26 -42.5l-41 -65q-19 -31 -19 -68v-57q0 -55 42 -55q44 0 44 53v85h105v-82q0 -72 -38.5 -110t-113.5 -38q-77 0 -113 35.5t-36 115.5v54q0 35 8.5 57.5t33.5 59.5l46 69q11 17 15.5 25t8.5 21.5t4 29.5v83zM243 678v-100
h-109v100h109z" />
    <glyph glyph-name="asterisk.alt" horiz-adv-x="278" 
d="M182 678l-28 -83h-30l-28 83h86zM257 557l-87 1l-10 26l71 54zM170 448l-26 83l24 18l71 -51zM108 558l-87 -1l26 81l71 -54zM134 531l-26 -83l-69 50l71 51z" />
    <glyph glyph-name="caron.alt" horiz-adv-x="400" 
d="M253 678v-9l-25 -84h-53v93h78z" />
    <glyph glyph-name="space_uni0326.alt" horiz-adv-x="400" 
d="M147 592v9l31 60h68l-6 -69h-93z" />
    </font>
</defs>
</svg>
